<svg width="41" height="41" viewBox="0 0 41 41" fill="none" xmlns="http://www.w3.org/2000/svg">
<g clip-path="url(#clip0_5_178)">
<path d="M26.0556 29.5319C26.0556 29.8266 25.9385 30.1092 25.7301 30.3176C25.5218 30.526 25.2391 30.643 24.9445 30.643H9.3889C9.14445 30.643 8.91112 30.8652 8.71112 31.0097L4.94445 33.9763V16.1986C4.94445 15.9039 5.06151 15.6213 5.26989 15.4129C5.47826 15.2045 5.76088 15.0875 6.05556 15.0875H10.3445V12.8652H6.05556C5.17151 12.8652 4.32366 13.2164 3.69854 13.8415C3.07342 14.4667 2.72223 15.3145 2.72223 16.1986V36.1986C2.72388 36.4049 2.78297 36.6067 2.89287 36.7814C3.00277 36.9561 3.15914 37.0967 3.34445 37.1875C3.52298 37.2686 3.71983 37.3011 3.91498 37.2816C4.11013 37.2621 4.29664 37.1913 4.45556 37.0763L10.1778 32.8652H25.1111C25.5322 32.8777 25.9514 32.8035 26.3427 32.6474C26.734 32.4913 27.0891 32.2564 27.386 31.9575C27.6828 31.6586 27.9152 31.3018 28.0686 30.9095C28.222 30.5171 28.2932 30.0974 28.2778 29.6763V28.4208H26.0556V29.5319Z" fill="#398378"/>
<path d="M34.9444 5.08691H16.0556C15.1715 5.08691 14.3237 5.4381 13.6985 6.06322C13.0734 6.68835 12.7222 7.53619 12.7222 8.42025V21.7536C12.7222 22.6376 13.0734 23.4855 13.6985 24.1106C14.3237 24.7357 15.1715 25.0869 16.0556 25.0869H31.1111L36.4222 29.2091C36.5801 29.3259 36.7661 29.3987 36.9613 29.4201C37.1565 29.4416 37.3538 29.411 37.5333 29.3314C37.7224 29.2413 37.8822 29.0996 37.9942 28.9227C38.1063 28.7458 38.1661 28.5408 38.1667 28.3314V8.42025C38.1671 7.55511 37.8313 6.72368 37.23 6.10165C36.6287 5.47963 35.8091 5.11575 34.9444 5.08691ZM36.0556 26.1314L32.1667 23.098C31.9727 22.9475 31.7344 22.8655 31.4889 22.8647H16.0556C15.7609 22.8647 15.4783 22.7476 15.2699 22.5393C15.0615 22.3309 14.9444 22.0483 14.9444 21.7536V8.42025C14.9444 8.12556 15.0615 7.84295 15.2699 7.63457C15.4783 7.4262 15.7609 7.30914 16.0556 7.30914H34.9444C35.2415 7.33609 35.5184 7.47071 35.723 7.68764C35.9277 7.90457 36.0459 8.18884 36.0556 8.48691V26.1314Z" fill="#398378"/>
</g>
<defs>
<clipPath id="clip0_5_178">
<rect width="40" height="40" fill="white" transform="translate(0.5 0.642578)"/>
</clipPath>
</defs>
</svg>
