<svg width="43" height="44" viewBox="0 0 43 44" fill="none" xmlns="http://www.w3.org/2000/svg">
<path fill-rule="evenodd" clip-rule="evenodd" d="M24.5377 0.615764C26.3044 1.44802 27.6751 3.06745 28.1125 5.12505L29.5496 11.8864C30.0412 14.1987 30.0835 16.5592 29.6993 18.8463C29.7951 18.8613 29.8915 18.8738 29.9883 18.8839C30.443 16.9125 30.5744 14.8616 30.3589 12.8114L29.6364 5.93686C29.3681 3.38385 27.6062 1.34937 25.3103 0.610344C25.1972 0.604284 25.0833 0.601214 24.9687 0.601214C24.8238 0.601214 24.6801 0.606114 24.5377 0.615764ZM24.1606 0.652704C26.0194 1.41367 27.4817 3.05084 27.9308 5.16366L29.368 11.925C29.8545 14.214 29.8966 16.5506 29.5163 18.8145C29.4368 18.7994 29.3577 18.7826 29.279 18.7642C29.5442 16.2016 29.2776 13.5871 28.4661 11.0896L26.3301 4.51557C25.7978 2.87717 24.6735 1.59646 23.2711 0.833244C23.5597 0.752424 23.8568 0.691714 24.1606 0.652704ZM24.1855 0.462434C24.3209 0.446104 24.4576 0.433944 24.5954 0.426104C24.3365 0.375504 24.0725 0.340974 23.8046 0.323494C23.9332 0.365874 24.0602 0.412224 24.1855 0.462434ZM23.0715 0.318494C23.3211 0.370824 23.5662 0.438184 23.8058 0.519764C23.5423 0.567584 23.2845 0.631364 23.0332 0.710054C22.7966 0.593674 22.553 0.491654 22.3036 0.404694C22.4444 0.380184 22.587 0.360264 22.7312 0.345104C22.845 0.333134 22.9585 0.324294 23.0715 0.318494ZM23.0862 0.131834C23.8705 0.0945037 24.6322 0.199894 25.3444 0.426234C28.7421 0.620804 31.4373 3.43771 31.4373 6.88413V13.7965C31.4373 15.5432 31.192 17.2646 30.7205 18.9147H36.343C39.9155 18.9147 42.8116 21.8108 42.8116 25.3833C42.8116 26.3047 42.619 27.1811 42.2718 27.9744C42.1452 28.7491 41.8837 29.472 41.5143 30.1214C41.3074 30.8788 40.9718 31.5706 40.5364 32.178C40.2517 32.9089 39.8462 33.5612 39.3504 34.1193C38.9906 34.8175 38.5184 35.4248 37.9661 35.9286C37.5351 36.5854 37.0019 37.1398 36.3999 37.5831C35.9028 38.1908 35.3148 38.6863 34.67 39.064C34.1123 39.6163 33.4759 40.0475 32.7953 40.3558C32.1831 40.8466 31.5053 41.2089 30.7965 41.4444C30.136 41.8689 29.4237 42.1585 28.6938 42.3187C27.9926 42.6717 27.2541 42.8852 26.5115 42.9682C25.7772 43.246 25.0203 43.3811 24.2731 43.386C23.5138 43.5855 22.747 43.6408 22.0034 43.5675C21.2275 43.6866 20.4591 43.6614 19.7272 43.5108C18.9431 43.5481 18.1816 43.4427 17.4695 43.2164C14.0716 43.0221 11.3762 40.2051 11.3762 36.7585V30.9952C11.3762 28.8387 11.75 26.7208 12.4619 24.728H6.46862C2.8961 24.728 0 21.8319 0 18.2594C0 17.3386 0.19239 16.4628 0.53917 15.6698C0.66566 14.8949 0.92707 14.1717 1.29652 13.522C1.50331 12.7647 1.8388 12.073 2.27399 11.4657C2.55909 10.7333 2.96561 10.0798 3.46262 9.52089C3.82239 8.82349 4.29432 8.21699 4.84616 7.71369C5.27672 7.05767 5.80934 6.50371 6.41066 6.06074C6.90757 5.45298 7.49543 4.95746 8.14003 4.57961C8.69793 4.02696 9.33453 3.59552 10.0153 3.2871C10.628 2.79574 11.3064 2.4332 12.0159 2.19769C12.6764 1.77334 13.3887 1.48386 14.1185 1.32383C14.8198 0.970754 15.5585 0.757244 16.3012 0.674354C17.0355 0.396554 17.7924 0.261444 18.5396 0.256624C19.299 0.0570537 20.0659 0.0017937 20.8096 0.0751237C21.5857 -0.0439863 22.3542 -0.0188063 23.0862 0.131834ZM21.544 0.190644C21.8123 0.180014 22.0785 0.186754 22.3413 0.210014C22.2051 0.232224 22.0704 0.258614 21.9375 0.289024C21.8075 0.252184 21.6763 0.219354 21.544 0.190644ZM20.0772 0.230714C19.8134 0.235034 19.5479 0.256144 19.2822 0.294744C19.4168 0.309474 19.5508 0.328404 19.6838 0.351474C19.8128 0.307344 19.944 0.267034 20.0772 0.230714ZM20.0601 0.428244C20.1975 0.389164 20.3371 0.354464 20.4789 0.324324C20.5909 0.300524 20.7028 0.279874 20.8145 0.262304C21.0682 0.288264 21.3191 0.329634 21.5658 0.385744C21.3089 0.460824 21.0592 0.551184 20.8176 0.655684C20.5702 0.564664 20.3172 0.488664 20.0601 0.428244ZM19.3243 0.486504C19.073 0.456484 18.8191 0.441554 18.564 0.442264C18.4547 0.471434 18.3455 0.503684 18.2365 0.539074C18.0988 0.583844 17.9636 0.632924 17.8311 0.686104C18.0932 0.719334 18.3528 0.768494 18.6084 0.833174C18.8377 0.703994 19.0767 0.588034 19.3243 0.486504ZM18.8667 0.904214C19.1321 0.765194 19.41 0.644084 19.699 0.542774C19.9961 0.596594 20.2886 0.671654 20.5742 0.767044C20.288 0.905284 20.0141 1.06373 19.7544 1.24038C19.4667 1.10665 19.1699 0.994364 18.8667 0.904214ZM18.3779 0.969364C18.0839 0.904314 17.7851 0.860224 17.4839 0.837764C17.207 0.968744 16.9433 1.11825 16.6938 1.28428C17.0049 1.34225 17.3118 1.42293 17.612 1.52589C17.8519 1.32302 18.1077 1.13677 18.3779 0.969364ZM17.8145 1.59913C18.0707 1.38992 18.3448 1.19994 18.635 1.0319C18.9573 1.11751 19.2729 1.22864 19.5784 1.36439C19.2913 1.57398 19.0227 1.80636 18.775 2.05857C18.4665 1.87831 18.1451 1.72497 17.8145 1.59913ZM17.6516 1.73678C17.3768 1.97727 17.1242 2.24059 16.8965 2.52309C17.2509 2.696 17.5923 2.90297 17.9157 3.14372C18.1287 2.80637 18.3723 2.48933 18.6431 2.19684C18.3251 2.01399 17.9932 1.86041 17.6516 1.73678ZM17.4499 1.66761C17.1863 1.90605 16.9435 2.16521 16.7236 2.4419C16.3979 2.29483 16.0621 2.17589 15.7201 2.08528C15.953 1.85047 16.2057 1.63292 16.4767 1.43549C16.8063 1.48695 17.1319 1.5645 17.4499 1.66761ZM16.4295 1.24063C16.6441 1.08816 16.8696 0.947844 17.1054 0.820974C16.8524 0.817384 16.5984 0.829084 16.3449 0.856424C16.2391 0.896884 16.1339 0.940384 16.0292 0.986984C15.8969 1.04592 15.7675 1.10887 15.6413 1.17563C15.9053 1.18128 16.1686 1.20303 16.4295 1.24063ZM15.3119 1.36274C15.6137 1.3536 15.9154 1.36621 16.2145 1.40016C15.9633 1.59488 15.7284 1.8068 15.511 2.0336C15.2019 1.9626 14.8882 1.91445 14.5729 1.88931C14.8037 1.69814 15.0503 1.52191 15.3119 1.36274ZM15.2573 1.17877C15.3743 1.10877 15.4942 1.04207 15.617 0.978854C15.3598 1.03793 15.1046 1.11377 14.8527 1.20677C14.9874 1.19319 15.1223 1.18387 15.2573 1.17877ZM14.181 1.50033C14.4303 1.44663 14.6817 1.40847 14.9337 1.3856C14.7125 1.53638 14.503 1.69948 14.3055 1.87351C14.0421 1.86338 13.778 1.86926 13.5148 1.89122C13.6333 1.81166 13.7553 1.73557 13.8808 1.66314C13.98 1.60587 14.0801 1.55161 14.181 1.50033ZM13.4699 1.69813C13.2205 1.78373 12.9746 1.8858 12.7339 2.00457C12.8664 1.97699 12.9996 1.95363 13.1333 1.93446C13.2423 1.85265 13.3545 1.77381 13.4699 1.69813ZM12.833 2.17396C12.6288 2.34708 12.4374 2.53123 12.2591 2.725C11.996 2.74248 11.734 2.77594 11.4745 2.82531C11.584 2.7338 11.6974 2.64537 11.8146 2.56023C11.9074 2.49282 12.0014 2.42831 12.0965 2.3667C12.3388 2.28725 12.5848 2.22304 12.833 2.17396ZM13.2068 2.11172C12.9632 2.2974 12.7363 2.49848 12.5267 2.71276C12.843 2.7048 13.16 2.71989 13.4749 2.75819C13.6674 2.50989 13.8789 2.27456 14.1084 2.05463C13.8074 2.05212 13.506 2.0711 13.2068 2.11172ZM14.3728 2.06238C14.1239 2.28706 13.8953 2.52985 13.6882 2.78773C14.0377 2.84208 14.384 2.92524 14.7232 3.03742C14.913 2.73927 15.1274 2.45616 15.3647 2.19148C15.0377 2.12221 14.7059 2.07911 14.3728 2.06238ZM15.5725 2.23919C15.3243 2.50708 15.1007 2.79535 14.9037 3.10008C15.2743 3.23502 15.6356 3.40518 15.9824 3.61085C16.159 3.25311 16.3681 2.91236 16.6069 2.59319C16.2714 2.44454 15.9252 2.32646 15.5725 2.23919ZM16.7794 2.6728C16.5341 2.99645 16.3204 3.34333 16.1415 3.7083C16.4465 3.90132 16.7394 4.12258 17.0167 4.37225L17.2409 4.57411C17.3877 4.12826 17.582 3.70229 17.8184 3.30286C17.4896 3.05666 17.1413 2.84654 16.7794 2.6728ZM17.9665 3.41727C17.7285 3.82281 17.5351 4.25628 17.3922 4.71032L18.5921 5.79072C18.6732 5.31432 18.8064 4.85567 18.9856 4.42084L18.7267 4.13329C18.4895 3.86981 18.235 3.63108 17.9665 3.41727ZM19.1239 4.57443C18.9526 5.00766 18.828 5.46449 18.7564 5.9387L22.1536 8.99749C24.882 11.4542 26.8022 14.6414 27.7149 18.1414C27.7318 18.1512 27.7487 18.161 27.7657 18.1706C27.1413 14.8831 25.6282 11.7982 23.352 9.27019L19.1239 4.57443ZM27.9757 18.2843C27.3627 14.9081 25.8234 11.7374 23.49 9.14589L19.2027 4.38442C19.3923 3.94776 19.63 3.53685 19.9091 3.15838C20.1539 3.39916 20.3821 3.66327 20.5906 3.95021L24.6536 9.54249C26.5474 12.149 27.7081 15.1808 28.0612 18.3273C28.0325 18.3132 28.004 18.2989 27.9757 18.2843ZM27.8089 18.4065C27.7985 18.401 27.7882 18.3954 27.7779 18.3898C27.7989 18.4754 27.8194 18.5612 27.8393 18.6471C27.8433 18.6503 27.8473 18.6536 27.8513 18.6568C27.8377 18.5733 27.8236 18.4898 27.8089 18.4065ZM28.0651 18.8213C28.0494 18.7179 28.0329 18.6147 28.0155 18.5117C28.0383 18.5228 28.0613 18.5337 28.0842 18.5445C28.0946 18.6481 28.1041 18.7519 28.1128 18.8558C28.0968 18.8444 28.0809 18.8329 28.0651 18.8213ZM27.4851 18.0002C26.5624 14.609 24.6816 11.5236 22.0294 9.13549L18.7268 6.16193C18.6997 6.39891 18.6858 6.63989 18.6858 6.88413V7.44679L20.8093 8.98959C23.9219 11.2511 26.2358 14.4033 27.4724 17.992C27.4767 17.9947 27.4809 17.9975 27.4851 18.0002ZM27.1035 17.5182C25.8394 14.187 23.6263 11.2659 20.7001 9.13989L18.6858 7.67629V8.66859L19.4715 9.12229C22.8484 11.0719 25.5049 14.0172 27.1035 17.5182ZM18.5001 8.56139V7.54139L17.1047 6.52765C17.1025 6.76621 17.1139 7.00739 17.1394 7.25039L17.1982 7.80979L18.5001 8.56139ZM17.2222 8.03809L18.5001 8.77589V9.55209C18.3856 9.49829 18.2704 9.44559 18.1546 9.39399L17.3259 9.02509L17.2222 8.03809ZM16.9994 7.69499L16.9547 7.26979C16.9237 6.97502 16.9131 6.68282 16.9216 6.39457L15.588 5.42566C15.5104 5.88498 15.4836 6.35766 15.5121 6.83631L16.9994 7.69499ZM15.5295 7.06081L17.0234 7.92329L17.13 8.93789L15.7565 8.32639L15.6396 7.77629C15.5888 7.53719 15.5523 7.29839 15.5295 7.06081ZM15.3206 6.72575C15.3009 6.24296 15.3359 5.7667 15.4208 5.30417L15.1079 5.07687C14.8209 4.86835 14.5222 4.68765 14.2149 4.53427C14.0664 4.98035 13.9673 5.44448 13.9219 5.91821L15.3206 6.72575ZM13.9057 6.12326L15.3335 6.94761C15.3551 7.23529 15.3963 7.52489 15.4579 7.81489L15.5468 8.23299L13.9776 7.53429C13.8992 7.0612 13.8765 6.58823 13.9057 6.12326ZM13.7456 5.81643C13.7965 5.34991 13.898 4.89294 14.0462 4.45318C13.6734 4.28077 13.2891 4.14768 12.899 4.05303C12.7263 4.42054 12.5894 4.80421 12.4902 5.19833C12.829 5.32377 13.1618 5.47938 13.4852 5.66609L13.7456 5.81643ZM12.4473 5.38052C12.769 5.50097 13.0851 5.64949 13.3924 5.82692L13.7267 6.01993C13.6905 6.48886 13.7056 6.96623 13.7756 7.44439L12.3005 6.78763C12.2961 6.31171 12.3462 5.83972 12.4473 5.38052ZM12.3144 5.1361C12.4128 4.74954 12.5465 4.37282 12.7137 4.01104C12.3547 3.93543 11.9915 3.89196 11.6285 3.87994C11.4414 4.19356 11.2826 4.52197 11.1532 4.86098C11.5438 4.91585 11.9325 5.00712 12.3144 5.1361ZM11.0882 5.03954C11.4861 5.09287 11.8822 5.18505 12.271 5.31752C12.1696 5.7704 12.1164 6.23551 12.1145 6.70483L11.8398 6.58252C11.4987 6.43064 11.1514 6.31067 10.8014 6.22132C10.8588 5.81899 10.9549 5.42309 11.0882 5.03954ZM10.9637 4.83722C11.0874 4.50615 11.2382 4.18468 11.4153 3.8765C11.0809 3.87675 10.7473 3.90361 10.4179 3.95655C10.2212 4.22805 10.0481 4.51302 9.89913 4.80829C10.2524 4.78872 10.6085 4.79803 10.9637 4.83722ZM9.80633 5.00028C10.1687 4.97425 10.5345 4.9795 10.8995 5.01716C10.7711 5.39444 10.6774 5.78308 10.62 6.17782C10.2266 6.08945 9.83053 6.0393 9.43633 6.02557C9.52953 5.67492 9.65313 5.33172 9.80633 5.00028ZM9.68433 4.82377C9.82103 4.54091 9.97893 4.26678 10.1577 4.00398C9.86253 4.06417 9.57153 4.14549 9.28713 4.24755C9.08753 4.47977 8.90753 4.72356 8.74713 4.97667C9.05493 4.90304 9.36823 4.85184 9.68433 4.82377ZM8.61033 5.20315C8.93243 5.11603 9.26143 5.0544 9.59393 5.01916C9.45013 5.34415 9.33373 5.6796 9.24533 6.02175C8.88793 6.01992 8.53283 6.04789 8.18353 6.1043C8.30073 5.79514 8.44303 5.49368 8.61033 5.20315ZM8.48793 5.04435C8.62193 4.81782 8.77083 4.59796 8.93453 4.38623C8.70183 4.48591 8.47453 4.59996 8.25403 4.72815C8.17403 4.80795 8.09573 4.89033 8.01923 4.97528C7.92223 5.08307 7.82963 5.19329 7.74133 5.30573C7.98483 5.20345 8.23423 5.11619 8.48793 5.04435ZM7.51643 5.61074C7.78853 5.47955 8.06933 5.36827 8.35643 5.27756C8.20613 5.55755 8.07783 5.84662 7.97153 6.14215C7.66023 6.2031 7.35413 6.28674 7.05579 6.39209C7.18883 6.12369 7.34233 5.86249 7.51643 5.61074ZM7.39173 5.4649C7.47013 5.35345 7.55243 5.24383 7.63873 5.13624C7.42813 5.29471 7.22593 5.4677 7.03385 5.65497C7.15133 5.5878 7.27063 5.52442 7.39173 5.4649ZM6.53955 6.19655C6.74538 6.04609 6.95942 5.90897 7.18023 5.78556C7.03965 6.01316 6.91461 6.24728 6.80504 6.48649C6.56039 6.58439 6.32165 6.69716 6.09029 6.82424C6.16622 6.7033 6.24676 6.5841 6.33194 6.46685C6.39913 6.37437 6.46837 6.28427 6.53955 6.19655ZM5.97034 6.66673C5.77761 6.84615 5.59484 7.03909 5.42353 7.24519C5.5332 7.16619 5.64518 7.09078 5.75925 7.01903C5.82548 6.90012 5.89583 6.78263 5.97034 6.66673ZM5.5824 7.35999C5.37581 7.50569 5.1774 7.66429 4.98852 7.83529C4.92671 7.93019 4.86709 8.02739 4.80977 8.12659C4.73747 8.25189 4.66996 8.37859 4.6072 8.50649C4.82394 8.35599 5.04951 8.21899 5.2825 8.09619C5.36647 7.84689 5.46636 7.60099 5.5824 7.35999ZM5.20235 8.35159C4.9406 8.49989 4.68928 8.66689 4.45061 8.85149C4.33243 9.13419 4.23644 9.42179 4.16206 9.71219C4.43184 9.54729 4.71374 9.40189 5.00547 9.27769C5.04804 8.96639 5.11353 8.65679 5.20235 8.35159ZM5.20496 9.19659C5.25539 8.86969 5.33197 8.54519 5.43521 8.22609C5.73195 8.07409 6.04069 7.94559 6.35843 7.84199C6.28528 8.18989 6.24115 8.54219 6.22583 8.89529C5.8761 8.96779 5.53475 9.06889 5.20496 9.19659ZM4.97986 9.49139C4.6747 9.62759 4.38108 9.78769 4.10187 9.96989C4.03254 10.2979 3.99029 10.6287 3.9743 10.9591C4.28894 10.7976 4.61784 10.6614 4.95807 10.5528C4.9364 10.2 4.94347 9.84499 4.97986 9.49139ZM5.14088 10.4974C5.12117 10.1351 5.13266 9.77049 5.17603 9.40789C5.51246 9.27119 5.86178 9.16319 6.22035 9.08629C6.21477 9.48479 6.24582 9.88329 6.31321 10.2765C5.91195 10.314 5.51986 10.3887 5.14088 10.4974ZM4.97258 10.7433C4.62402 10.8573 4.28791 11.0012 3.96762 11.1722C3.96238 11.5374 3.98906 11.9012 4.04653 12.2595C4.41207 12.1118 4.79419 11.9965 5.18933 11.9173C5.08122 11.5333 5.00869 11.1402 4.97258 10.7433ZM5.3727 11.8832C5.2615 11.4924 5.1883 11.0916 5.15406 10.687C5.53915 10.5739 5.93838 10.497 6.34736 10.4599C6.43886 10.9148 6.57941 11.3613 6.76857 11.7908H6.46862C6.09508 11.7908 5.72892 11.8225 5.3727 11.8832ZM5.24246 12.0961C4.83961 12.1758 4.45061 12.294 4.07945 12.4467C4.41071 14.1771 5.46391 15.7592 7.10953 16.7093L13.0957 20.1655C13.5212 20.4111 13.9104 20.7068 14.2566 21.0438C14.3255 20.9348 14.3955 20.8264 14.4667 20.7187C14.1183 20.2385 13.6939 19.8113 13.205 19.4561L7.61273 15.3931C6.44395 14.5439 5.64302 13.3765 5.24246 12.0961ZM14.5766 20.5546C14.2246 20.0811 13.8002 19.659 13.3141 19.3059L7.72193 15.2429C6.59335 14.4229 5.81791 13.2976 5.42659 12.0625C5.76552 12.0059 6.11363 11.9765 6.46862 11.9765H6.85391C7.20873 12.7174 7.71163 13.4027 8.36003 13.9865L13.4969 18.6118C14.0253 19.0876 14.4545 19.653 14.769 20.2756C14.704 20.3681 14.6398 20.461 14.5766 20.5546ZM14.5812 20.8825C14.5168 20.9807 14.4534 21.0795 14.391 21.1789C14.4216 21.2107 14.4518 21.2428 14.4817 21.2753C14.5349 21.1757 14.5889 21.0765 14.6439 20.9778C14.6234 20.9458 14.6024 20.9141 14.5812 20.8825ZM14.7467 20.7958C14.7287 20.7689 14.7105 20.7421 14.692 20.7155C14.7478 20.6324 14.8043 20.5497 14.8614 20.4675C14.8727 20.4921 14.8839 20.5168 14.8948 20.5416C14.8447 20.626 14.7953 20.7107 14.7467 20.7958ZM14.7559 21.1589C14.7077 21.2467 14.6602 21.3348 14.6134 21.4233C14.6344 21.4478 14.6553 21.4724 14.676 21.4973C14.7155 21.4076 14.7558 21.3181 14.7968 21.2289C14.7833 21.2055 14.7697 21.1821 14.7559 21.1589ZM14.8921 21.0247C14.8815 21.0072 14.8708 20.9896 14.86 20.9722C14.9009 20.8998 14.9423 20.8276 14.9843 20.7557C14.9899 20.7701 14.9955 20.7845 15.001 20.7988C14.9642 20.8739 14.9279 20.9492 14.8921 21.0247ZM14.9081 21.4325C14.8739 21.5084 14.8403 21.5845 14.8072 21.6608C14.8196 21.677 14.832 21.6932 14.8443 21.7094C14.872 21.6305 14.9003 21.5518 14.9291 21.4733C14.9222 21.4597 14.9152 21.4461 14.9081 21.4325ZM15.0162 21.2407C15.0126 21.234 15.0089 21.2273 15.0052 21.2206C15.0327 21.1615 15.0606 21.1024 15.0888 21.0435C15.0894 21.0454 15.09 21.0472 15.0906 21.0491C15.0655 21.1128 15.0407 21.1767 15.0162 21.2407ZM15.042 21.7074C15.0201 21.769 14.9985 21.8306 14.9773 21.8924C14.9817 21.8987 14.9861 21.9051 14.9905 21.9114C15.0082 21.8452 15.0262 21.7791 15.0445 21.713C15.0437 21.7111 15.0429 21.7093 15.042 21.7074ZM14.9282 22.1518C14.9199 22.1389 14.9114 22.1261 14.9029 22.1133C14.8768 22.1925 14.8512 22.2718 14.8262 22.3513C14.8404 22.3661 14.8545 22.381 14.8685 22.3959C14.8878 22.3145 14.9078 22.2331 14.9282 22.1518ZM15.0199 22.564C15.0345 22.5002 15.0496 22.4365 15.065 22.3729C15.066 22.3746 15.067 22.3763 15.068 22.3781C15.0566 22.4459 15.0456 22.5137 15.035 22.5815C15.03 22.5757 15.0249 22.5698 15.0199 22.564ZM14.8177 22.6154C14.7997 22.5953 14.7815 22.5754 14.7632 22.5555C14.7342 22.6516 14.706 22.7478 14.6786 22.8442C14.7043 22.8638 14.7299 22.8836 14.7552 22.9037C14.7753 22.8075 14.7961 22.7114 14.8177 22.6154ZM14.9175 23.0364C14.9341 22.9546 14.9513 22.873 14.969 22.7914C14.9787 22.8033 14.9885 22.8152 14.9982 22.8271C14.9863 22.9102 14.975 22.9932 14.9642 23.0763C14.9487 23.0629 14.9332 23.0496 14.9175 23.0364ZM14.7138 23.1084C14.6844 23.0844 14.6547 23.0607 14.6248 23.0373C14.5939 23.1507 14.5641 23.2643 14.5354 23.3781C14.5743 23.3988 14.613 23.42 14.6514 23.4416C14.6711 23.3304 14.6919 23.2194 14.7138 23.1084ZM14.8223 23.5417C14.8395 23.443 14.8575 23.3445 14.8763 23.2461C14.8965 23.2639 14.9166 23.2819 14.9366 23.3C14.9252 23.3975 14.9146 23.4951 14.9047 23.5927C14.8774 23.5755 14.8499 23.5585 14.8223 23.5417ZM14.6178 23.6363C14.5754 23.6117 14.5326 23.5877 14.4895 23.5643C14.4575 23.6967 14.4271 23.8295 14.3981 23.9625C14.4517 23.9806 14.505 23.9993 14.558 24.0189C14.5766 23.8912 14.5965 23.7637 14.6178 23.6363ZM14.7357 24.0876C14.7524 23.9714 14.7701 23.8553 14.789 23.7394C14.8212 23.7595 14.8531 23.7799 14.8849 23.8007C14.8748 23.9133 14.8657 24.026 14.8576 24.1387C14.8172 24.1212 14.7766 24.1042 14.7357 24.0876ZM14.5316 24.2072C14.4745 24.1857 14.417 24.1651 14.3592 24.1454C14.3272 24.2999 14.2972 24.4547 14.2692 24.6098C14.3389 24.6205 14.4084 24.6324 14.4776 24.6455C14.4938 24.4993 14.5118 24.3531 14.5316 24.2072ZM14.6602 24.6832C14.6752 24.5479 14.6916 24.4127 14.7095 24.2776C14.7548 24.2964 14.7998 24.3158 14.8446 24.3358C14.8368 24.4647 14.8303 24.5936 14.8251 24.7225C14.7704 24.7086 14.7154 24.6955 14.6602 24.6832ZM14.4579 24.8308C14.3846 24.8167 14.311 24.804 14.2371 24.7928C13.741 27.7069 13.9478 30.7252 14.8781 33.5884L16.6591 39.0697C17.1969 40.7247 18.3564 42.004 19.7951 42.7329C20.1138 42.6289 20.4214 42.5001 20.7154 42.3488C19.6955 41.6908 18.8489 40.7385 18.3183 39.5469L15.9741 34.2818C14.6427 31.2914 14.1345 28.0318 14.4579 24.8308ZM20.9033 42.248C19.8738 41.6074 19.0183 40.6626 18.488 39.4714L16.1438 34.2063C14.8284 31.2518 14.3245 28.0319 14.6407 24.8692C14.7002 24.8827 14.7595 24.8971 14.8185 24.9125C14.7166 28.3415 15.5631 31.7621 17.3063 34.7813L20.1879 39.7726C20.6163 40.5144 21.1693 41.1394 21.8054 41.6362C21.5239 41.865 21.2222 42.07 20.9033 42.248ZM20.8983 42.4625C20.6215 42.611 20.3326 42.7399 20.0336 42.8475C20.3076 42.9721 20.5906 43.0773 20.8805 43.1619C21.1785 43.0914 21.4674 43 21.746 42.8895C21.4538 42.7682 21.1704 42.6255 20.8983 42.4625ZM21.9898 42.7868C21.6782 42.668 21.3759 42.5245 21.0863 42.3576C21.3937 42.1793 21.685 41.9763 21.9577 41.7515C22.2456 41.9629 22.5493 42.149 22.8649 42.3086C22.5883 42.4898 22.2959 42.65 21.9898 42.7868ZM21.9955 42.9872C21.7539 43.0916 21.5042 43.1819 21.2473 43.257C21.494 43.3131 21.7449 43.3544 21.9985 43.3804C22.1104 43.3628 22.2224 43.3421 22.3345 43.3183C22.4761 43.2882 22.6156 43.2535 22.7528 43.2145C22.4958 43.1541 22.2429 43.0781 21.9955 42.9872ZM23.1141 43.1C22.817 43.0462 22.5245 42.9712 22.239 42.8758C22.5251 42.7376 22.7989 42.5792 23.0587 42.4026C23.3464 42.5363 23.6431 42.6485 23.9463 42.7386C23.6809 42.8776 23.4031 42.9987 23.1141 43.1ZM23.1292 43.2912C23.0003 43.3353 22.8693 43.3756 22.7362 43.4119C22.9998 43.4075 23.265 43.3864 23.5304 43.3479C23.3959 43.3332 23.2621 43.3143 23.1292 43.2912ZM24.2486 43.2004C23.9937 43.2011 23.74 43.1862 23.4889 43.1562C23.7365 43.0547 23.9754 42.9388 24.2047 42.8096C24.4602 42.8742 24.7196 42.9233 24.9815 42.9565C24.849 43.0097 24.7138 43.0588 24.5761 43.1035C24.4671 43.1389 24.358 43.1712 24.2486 43.2004ZM24.9855 43.1546C25.2472 43.1228 25.5088 43.074 25.7689 43.0079C25.6336 43.0073 25.4985 43.0025 25.3638 42.9935C25.2402 43.0508 25.114 43.1046 24.9855 43.1546ZM25.7073 42.8216C25.9603 42.8252 26.2143 42.8135 26.4678 42.7861C26.5735 42.7457 26.6786 42.7022 26.7832 42.6556C26.9155 42.5967 27.0448 42.5338 27.171 42.4671C26.907 42.4614 26.6438 42.4397 26.3829 42.4022C26.1683 42.5545 25.9429 42.6948 25.7073 42.8216ZM26.5979 42.2426C26.897 42.2765 27.1987 42.2891 27.5005 42.2799C27.7621 42.1207 28.0087 41.9445 28.2394 41.7534C27.9241 41.7283 27.6104 41.6802 27.3013 41.6093C27.0839 41.8361 26.8491 42.0479 26.5979 42.2426ZM27.0922 41.5577C26.8593 41.7924 26.6066 42.0099 26.3357 42.2073C26.0062 42.1559 25.6809 42.0785 25.3629 41.9755C25.6265 41.7371 25.8693 41.4781 26.0892 41.2015C26.4147 41.3484 26.7503 41.4672 27.0922 41.5577ZM27.4476 41.4514C27.7747 41.5206 28.1065 41.5636 28.4396 41.5803C28.6884 41.3557 28.9169 41.113 29.124 40.8552C28.7745 40.8009 28.4282 40.7178 28.089 40.6057C27.8992 40.9038 27.6849 41.1868 27.4476 41.4514ZM27.9086 40.5431C27.7116 40.8478 27.488 41.1359 27.2398 41.4038C26.8873 41.3166 26.5412 41.1987 26.2059 41.0502C26.4446 40.7312 26.6538 40.3906 26.8304 40.033C27.177 40.2384 27.5381 40.4084 27.9086 40.5431ZM28.1893 40.4431C28.5384 40.5557 28.8949 40.6368 29.2547 40.6867C29.4735 40.3944 29.6658 40.0844 29.8299 39.7608C29.4473 39.6654 29.0703 39.5341 28.704 39.366C28.5658 39.7401 28.3934 40.1008 28.1893 40.4431ZM28.5356 39.2858C28.3958 39.6673 28.2195 40.0346 28.0094 40.382C27.6314 40.2472 27.2632 40.0748 26.9105 39.8646C27.104 39.4428 27.2528 38.9989 27.3522 38.5403L27.5943 38.7162C27.8966 38.9358 28.2116 39.1255 28.5356 39.2858ZM28.7661 39.1901C29.1389 39.3624 29.5232 39.4954 29.9133 39.59C30.0859 39.2225 30.2229 38.8388 30.3221 38.4447C29.9831 38.3192 29.6502 38.1636 29.3266 37.9768L29.0669 37.8268C29.016 38.2934 28.9144 38.7503 28.7661 39.1901ZM28.8906 37.7251C28.8452 38.1988 28.746 38.663 28.5974 39.1091C28.2898 38.9556 27.9908 38.7747 27.7034 38.566L27.3924 38.3399C27.4774 37.8773 27.5125 37.401 27.4929 36.9181L28.8906 37.7251ZM29.0859 37.6233L29.4195 37.8159C29.7269 37.9935 30.0432 38.142 30.365 38.2625C30.4662 37.8034 30.5163 37.3314 30.5119 36.8556L29.0371 36.1989C29.1071 36.6771 29.122 37.1544 29.0859 37.6233ZM28.8351 36.109C28.9135 36.5821 28.9361 37.0551 28.9069 37.52L27.48 36.6962C27.4584 36.4081 27.4172 36.1182 27.3555 35.8278L27.2668 35.4108L28.8351 36.109ZM29.0012 35.9797L30.5067 36.65C30.4871 36.1845 30.4152 35.7165 30.2878 35.2542L28.6548 34.7236L28.7866 35.1292C28.8783 35.4115 28.9495 35.6955 29.0012 35.9797ZM28.4365 34.6527L28.6099 35.1866C28.6856 35.4194 28.7469 35.6533 28.7944 35.8876L27.2191 35.1862L27.007 34.1882C27.0148 34.1908 27.0227 34.1933 27.0306 34.1959L28.4365 34.6527ZM28.5838 34.5053L30.2241 35.0383C30.1524 34.8103 30.067 34.584 29.9674 34.3604L29.7391 33.8474L28.2934 33.5401C28.2851 33.5384 28.2768 33.5366 28.2685 33.5348L28.5838 34.5053ZM28.0582 33.4886L28.3655 34.4344L27.088 34.0193C27.046 34.0056 27.0041 33.9919 26.9623 33.9779L26.7871 33.1536C27.2054 33.2798 27.6294 33.3916 28.0582 33.4886ZM28.2021 33.3304C28.2453 33.3399 28.2886 33.3493 28.332 33.3585L29.6457 33.6377L29.2412 32.7292C28.8044 32.6776 28.371 32.6107 27.9417 32.5289L28.2021 33.3304ZM27.7331 32.488L27.9913 33.2827C27.5701 33.1848 27.1538 33.0725 26.743 32.9461L26.5883 32.2185C26.9662 32.3201 27.348 32.4101 27.7331 32.488ZM27.8761 32.3271C28.298 32.4099 28.7239 32.4782 29.1532 32.5315L28.8133 31.7681C28.422 31.7308 28.0328 31.6813 27.6462 31.6197L27.8761 32.3271ZM27.4399 31.5856L27.6671 32.2849C27.2895 32.2062 26.9153 32.1159 26.5449 32.0142L26.41 31.3794C26.7508 31.4577 27.0942 31.5265 27.4399 31.5856ZM27.5817 31.4211C27.9608 31.4835 28.3426 31.5342 28.7264 31.573L27.6233 29.0953C27.132 27.9919 26.9959 26.7724 27.2193 25.6022C27.2102 25.6133 27.201 25.6244 27.1919 25.6356C26.6459 26.902 26.5768 28.3284 27.0056 29.6479L27.5817 31.4211ZM27.4841 25.2714C27.1609 26.5136 27.2658 27.8358 27.7929 29.0198L28.9387 31.5932C29.3669 31.6314 29.7976 31.6548 30.2301 31.663L28.3494 28.4056C27.7772 27.4145 27.5112 26.2864 27.5698 25.1608C27.5414 25.1978 27.5128 25.2346 27.4841 25.2714ZM27.7772 24.8862C27.656 26.0695 27.9079 27.2695 28.5103 28.3127L30.4461 31.6658C30.4906 31.6661 30.5351 31.6663 30.5796 31.6663H31.9218L28.9993 27.6438C28.3705 26.7783 27.9953 25.7657 27.9005 24.7178C27.8597 24.7742 27.8186 24.8303 27.7772 24.8862ZM28.0698 24.48C28.1258 25.5729 28.4965 26.6357 29.1496 27.5346L32.1514 31.6663H33.8759C33.7373 31.4717 33.5862 31.2829 33.4225 31.1011L29.566 26.8181C28.9058 26.0848 28.447 25.2045 28.2198 24.2623C28.1704 24.3352 28.1203 24.4078 28.0698 24.48ZM28.3623 24.0495C28.5663 25.0256 29.0252 25.94 29.704 26.6938L33.5605 30.9769C33.759 31.1974 33.9396 31.4278 34.1023 31.6663H35.7504C35.4082 30.9774 34.9329 30.3402 34.3266 29.7942L30.0436 25.9378C29.3777 25.3382 28.8643 24.6006 28.5327 23.7861C28.4766 23.8744 28.4198 23.9621 28.3623 24.0495ZM28.4495 23.5698C28.4046 23.6416 28.3592 23.7131 28.3134 23.7844C28.3126 23.7794 28.3118 23.7744 28.311 23.7694C28.3538 23.6922 28.396 23.6147 28.4377 23.5369C28.4416 23.5479 28.4455 23.5588 28.4495 23.5698ZM28.6552 23.5905C28.9737 24.429 29.4889 25.1884 30.1679 25.7998L34.4509 29.6562C35.0993 30.2401 35.6022 30.9253 35.957 31.6663H36.343C36.6979 31.6663 37.0459 31.6368 37.3848 31.5803C36.9935 30.3452 36.218 29.2199 35.0895 28.4L30.4268 25.0123C29.7813 24.5434 29.2447 23.953 28.8419 23.2819C28.7807 23.3853 28.7185 23.4882 28.6552 23.5905ZM28.7353 23.0967C28.6827 23.1868 28.6293 23.2764 28.5752 23.3657C28.5691 23.3472 28.563 23.3288 28.5571 23.3103C28.6052 23.2173 28.6526 23.124 28.6992 23.0303C28.7111 23.0525 28.7231 23.0747 28.7353 23.0967ZM28.9492 23.098C29.3446 23.7845 29.8827 24.3875 30.536 24.8621L35.1986 28.2497C36.3674 29.0989 37.1684 30.2663 37.5689 31.5467C37.9719 31.467 38.3611 31.3488 38.7324 31.196C38.4011 29.4656 37.3479 27.8836 35.7024 26.9336L30.7112 24.0519C30.1124 23.7062 29.5855 23.2614 29.1492 22.742C29.0839 22.8613 29.0172 22.98 28.9492 23.098ZM29.0227 22.586C28.9643 22.6937 28.9048 22.8009 28.8442 22.9075C28.8295 22.8795 28.8149 22.8513 28.8006 22.8229C28.8528 22.7146 28.9039 22.6058 28.954 22.4965C28.9766 22.5266 28.9995 22.5564 29.0227 22.586ZM29.2444 22.5658C29.6759 23.0932 30.2025 23.5438 30.804 23.8911L35.7952 26.7728C37.4767 27.7435 38.5574 29.3552 38.907 31.121C39.2418 30.9712 39.561 30.7929 39.8617 30.5892C39.6628 28.3952 38.3138 26.3709 36.1583 25.4112L30.8932 23.067C30.3677 22.8331 29.8844 22.5256 29.4557 22.1576C29.387 22.2945 29.3165 22.4306 29.2444 22.5658ZM29.3119 22.03C29.249 22.1562 29.1846 22.2817 29.1187 22.4065C29.0926 22.3721 29.0668 22.3374 29.0415 22.3025C29.0967 22.1781 29.1506 22.0531 29.2031 21.9277C29.2389 21.9622 29.2752 21.9964 29.3119 22.03ZM29.5409 21.9858C29.9649 22.3558 30.4452 22.6643 30.9688 22.8974L36.2339 25.2416C38.4183 26.2142 39.7982 28.2488 40.0362 30.4667C40.3064 30.2701 40.5602 30.0525 40.7954 29.8163C40.7923 27.1706 39.105 24.7113 36.4523 23.8494L30.971 22.0684C30.545 21.93 30.1399 21.7446 29.7619 21.5178C29.6905 21.6747 29.6168 21.8308 29.5409 21.9858ZM29.6029 21.4188C29.5364 21.5655 29.4679 21.7113 29.3975 21.8562C29.3575 21.8189 29.3181 21.781 29.2793 21.7425C29.3369 21.6006 29.3927 21.4579 29.4468 21.3146C29.4983 21.3501 29.5503 21.3849 29.6029 21.4188ZM29.8386 21.3471C30.21 21.5721 30.6088 21.7555 31.0284 21.8918L36.5097 23.6728C39.1768 24.5394 40.896 26.9744 40.9781 29.625C41.1814 29.4029 41.3689 29.1663 41.5389 28.9167C41.7934 25.8133 39.7085 22.9301 36.582 22.2655L30.9446 21.0672C30.644 21.0034 30.3509 20.9165 30.0675 20.8081C29.994 20.989 29.9177 21.1687 29.8386 21.3471ZM29.8951 20.7391C29.8259 20.9095 29.7541 21.079 29.6797 21.2473C29.6237 21.2107 29.5683 21.1732 29.5136 21.1348C29.5728 20.9726 29.6298 20.8096 29.6846 20.6459C29.7541 20.6783 29.8243 20.7094 29.8951 20.7391ZM30.1366 20.6357C30.4102 20.7401 30.6931 20.8239 30.9832 20.8856L36.6206 22.0839C39.7269 22.7441 41.8345 25.5316 41.7428 28.5973C41.8724 28.38 41.9892 28.1543 42.0923 27.9212C42.1101 27.8092 42.1251 27.6961 42.1371 27.582C42.4998 24.131 39.9963 21.0394 36.5454 20.6767L30.8136 20.0743C30.6646 20.0586 30.5168 20.0373 30.3704 20.0106C30.2962 20.2203 30.2182 20.4288 30.1366 20.6357ZM30.1864 19.9739C30.1157 20.1727 30.0416 20.3704 29.9642 20.5666C29.8897 20.5354 29.8159 20.5026 29.743 20.4682C29.803 20.2825 29.8601 20.0958 29.9143 19.9082C30.0043 19.9322 30.095 19.9541 30.1864 19.9739ZM30.4322 19.833C30.5647 19.8565 30.6983 19.8754 30.833 19.8896L36.5648 20.492C39.9933 20.8524 42.5135 23.8289 42.3503 27.2295C42.5295 26.6458 42.6259 26.0258 42.6259 25.3833C42.6259 21.9134 39.8129 19.1004 36.343 19.1004H30.6664C30.5934 19.3463 30.5153 19.5905 30.4322 19.833ZM30.4729 19.0994C30.4026 19.3336 30.3277 19.5662 30.2482 19.7972C30.1531 19.777 30.0586 19.7545 29.9649 19.7296C30.0245 19.5152 30.0803 19.2998 30.1322 19.0834C30.2453 19.092 30.3589 19.0974 30.4729 19.0994ZM30.5274 18.9145C31.0037 17.2654 31.2516 15.5437 31.2516 13.7965V6.88413C31.2516 3.77899 28.9991 1.19997 26.0389 0.691994C28.0685 1.60598 29.5716 3.54409 29.8211 5.91745L30.5436 12.792C30.7604 14.8541 30.6296 16.9168 30.1751 18.9003C30.292 18.9087 30.4095 18.9134 30.5274 18.9145ZM29.9453 19.0661C29.8523 19.056 29.7597 19.0437 29.6676 19.0293C29.6334 19.2214 29.5961 19.4131 29.5558 19.6041C29.632 19.6306 29.7088 19.6556 29.7862 19.6789C29.8428 19.4756 29.8958 19.2713 29.9453 19.0661ZM29.7356 19.8576C29.662 19.8355 29.5889 19.8119 29.5163 19.7869C29.479 19.9555 29.4393 20.1235 29.3973 20.2909C29.4558 20.3235 29.5149 20.355 29.5745 20.3855C29.6308 20.2104 29.6845 20.0344 29.7356 19.8576ZM29.5161 20.5642C29.4601 20.5359 29.4047 20.5068 29.3497 20.4767C29.3109 20.625 29.2703 20.7728 29.2278 20.9202C29.2705 20.9544 29.3137 20.988 29.3574 21.021C29.4123 20.8694 29.4652 20.7171 29.5161 20.5642ZM29.2904 21.2028C29.2503 21.1731 29.2106 21.1429 29.1713 21.1123C29.1323 21.2425 29.0918 21.3723 29.0499 21.5017C29.0788 21.5339 29.108 21.5657 29.1377 21.5972C29.1901 21.4663 29.241 21.3348 29.2904 21.2028ZM29.0609 21.7858C29.0347 21.7587 29.0088 21.7314 28.9831 21.7039C28.9448 21.8176 28.9054 21.9311 28.8649 22.0442C28.8821 22.0709 28.8995 22.0975 28.9172 22.1239C28.9662 22.0117 29.0141 21.899 29.0609 21.7858ZM28.8286 22.3235C28.8141 22.3028 28.7998 22.282 28.7856 22.2611C28.7491 22.3591 28.7118 22.4568 28.6736 22.5543C28.6815 22.5721 28.6895 22.5899 28.6975 22.6077C28.742 22.5133 28.7857 22.4186 28.8286 22.3235ZM28.5938 22.8238C28.5887 22.8133 28.5836 22.8027 28.5786 22.7921C28.5452 22.8739 28.5113 22.9555 28.4768 23.0369C28.4781 23.0419 28.4794 23.0468 28.4807 23.0517C28.519 22.976 28.5567 22.9 28.5938 22.8238ZM28.5707 22.3051C28.6008 22.2258 28.6303 22.1463 28.6593 22.0667C28.653 22.0566 28.6468 22.0465 28.6406 22.0364C28.616 22.1212 28.5908 22.2058 28.565 22.2903C28.5669 22.2952 28.5688 22.3002 28.5707 22.3051ZM28.7102 21.7899C28.72 21.8069 28.7299 21.8239 28.7398 21.8409C28.7742 21.7425 28.8077 21.6438 28.8403 21.5449C28.8237 21.5257 28.8072 21.5064 28.7908 21.487C28.7648 21.5882 28.738 21.6891 28.7102 21.7899ZM28.6449 21.3069C28.6244 21.389 28.6034 21.4709 28.5818 21.5528C28.5795 21.5482 28.5771 21.5435 28.5748 21.5389C28.5916 21.4524 28.6078 21.3657 28.6233 21.279C28.6305 21.2883 28.6377 21.2976 28.6449 21.3069ZM28.847 21.2631C28.867 21.2879 28.8872 21.3127 28.9076 21.3372C28.9446 21.2205 28.9805 21.1034 29.0151 20.986C28.9862 20.9618 28.9574 20.9373 28.9289 20.9125C28.9027 21.0295 28.8754 21.1464 28.847 21.2631ZM28.7703 20.7693C28.7482 20.871 28.7252 20.9725 28.7013 21.0739C28.6898 21.0582 28.6783 21.0424 28.6669 21.0266C28.6839 20.9235 28.7 20.8204 28.7153 20.7172C28.7336 20.7347 28.7519 20.7521 28.7703 20.7693ZM28.9742 20.7045C29.0064 20.7335 29.0389 20.7622 29.0717 20.7905C29.1102 20.6547 29.1472 20.5185 29.1825 20.3819C29.1395 20.3565 29.0967 20.3306 29.0543 20.3041C29.0291 20.4378 29.0024 20.5713 28.9742 20.7045ZM28.8858 20.1949C28.8636 20.3154 28.8401 20.4356 28.8155 20.5557C28.7927 20.5335 28.7701 20.5112 28.7477 20.4886C28.7639 20.3695 28.7788 20.2502 28.7927 20.1309C28.8235 20.1525 28.8546 20.1739 28.8858 20.1949ZM29.0904 20.1072C29.1366 20.1368 29.1831 20.1658 29.2301 20.194C29.2688 20.0376 29.3055 19.8806 29.3402 19.7232C29.2815 19.7009 29.2232 19.6777 29.1653 19.6535C29.1422 19.805 29.1173 19.9562 29.0904 20.1072ZM28.9891 19.5766C28.9682 19.7161 28.9458 19.8554 28.9217 19.9945C28.8861 19.9698 28.8509 19.9448 28.8159 19.9193C28.83 19.7839 28.8426 19.6484 28.8538 19.5128C28.8986 19.5347 28.9437 19.5559 28.9891 19.5766ZM29.1932 19.4638C29.2549 19.4901 29.317 19.5153 29.3796 19.5395C29.4173 19.3594 29.4523 19.1787 29.4846 18.9976C29.409 18.9832 29.3337 18.9674 29.2588 18.9501C29.2393 19.1216 29.2175 19.2928 29.1932 19.4638ZM29.077 18.9051C29.059 19.0653 29.039 19.2252 29.0168 19.3849C28.9672 19.3617 28.918 19.3378 28.8691 19.3132C28.88 19.1603 28.889 19.0073 28.8961 18.8542C28.9561 18.8721 29.0164 18.8891 29.077 18.9051ZM29.097 18.7183C29.3549 16.1898 29.0901 13.6109 28.2895 11.147L26.1535 4.57296C25.6158 2.91806 24.4564 1.63888 23.0179 0.909964C22.6991 1.01398 22.3916 1.1428 22.0975 1.29414C23.1173 1.95216 23.9636 2.90426 24.4941 4.09569L27.3056 10.4105C28.4711 13.0282 29.0058 15.8522 28.9041 18.6625C28.968 18.6822 29.0324 18.7008 29.097 18.7183ZM28.7203 18.6025C28.8124 15.8378 28.2825 13.0611 27.136 10.486L24.3245 4.17122C23.7942 2.98026 22.9389 2.03551 21.9096 1.39492C21.5908 1.57299 21.289 1.77804 21.0075 2.00697C21.6432 2.50367 22.1961 3.12841 22.6242 3.87L26.0804 9.85629C27.6237 12.5294 28.4642 15.5171 28.5659 18.5467C28.6171 18.566 28.6686 18.5846 28.7203 18.6025ZM28.7129 18.7961C28.6655 18.7803 28.6184 18.7638 28.5716 18.7468C28.5747 18.8828 28.5763 19.0189 28.5764 19.155C28.6138 19.1767 28.6515 19.1979 28.6895 19.2188C28.6989 19.078 28.7067 18.9371 28.7129 18.7961ZM28.6748 19.4218C28.6415 19.4042 28.6083 19.3862 28.5754 19.3679C28.5741 19.488 28.5717 19.6081 28.5681 19.7282C28.5928 19.7483 28.6176 19.7683 28.6426 19.7879C28.6545 19.666 28.6653 19.5439 28.6748 19.4218ZM28.62 20.0051C28.5998 19.9899 28.5797 19.9745 28.5598 19.959C28.5553 20.0634 28.55 20.1678 28.5439 20.2722C28.5569 20.2868 28.57 20.3013 28.5831 20.3157C28.5963 20.2123 28.6086 20.1087 28.62 20.0051ZM28.5513 20.5533C28.5432 20.5449 28.5351 20.5364 28.527 20.5278C28.5206 20.6156 28.5135 20.7034 28.5059 20.7911C28.5087 20.7955 28.5115 20.7998 28.5144 20.8042C28.5273 20.7206 28.5396 20.637 28.5513 20.5533ZM28.369 20.0671C28.3731 19.9824 28.3766 19.8978 28.3795 19.8131C28.3705 19.8055 28.3614 19.7978 28.3524 19.7902C28.3552 19.8783 28.3574 19.9665 28.359 20.0547C28.3623 20.0589 28.3656 20.063 28.369 20.0671ZM28.3425 19.5342C28.357 19.5473 28.3717 19.5604 28.3863 19.5735C28.3886 19.4693 28.39 19.365 28.3905 19.2608C28.3688 19.2477 28.3471 19.2345 28.3256 19.2211C28.3321 19.3254 28.3377 19.4297 28.3425 19.5342ZM28.1311 19.0949C28.137 19.1793 28.1423 19.2638 28.1471 19.3483C28.1433 19.3446 28.1396 19.3408 28.1359 19.3371C28.1251 19.2496 28.1137 19.1622 28.1017 19.0748C28.1115 19.0816 28.1213 19.0882 28.1311 19.0949ZM28.3097 18.9907C28.3364 19.0082 28.3633 19.0255 28.3902 19.0425C28.3894 18.9199 28.3873 18.7974 28.384 18.675C28.349 18.6609 28.3141 18.6464 28.2793 18.6316C28.2906 18.7512 28.3007 18.8709 28.3097 18.9907ZM28.2581 18.4198C28.2976 18.4375 28.3374 18.4547 28.3774 18.4715C28.2645 15.5 27.4337 12.5717 25.9196 9.94919L22.4634 3.96285C22.0406 3.23044 21.4925 2.61537 20.8619 2.12908C20.5546 2.39468 20.2734 2.68957 20.0225 3.0094C20.2808 3.26169 20.5214 3.5391 20.7408 3.84106L24.8038 9.43329C26.7394 12.0973 27.9168 15.2011 28.2581 18.4198ZM19.8872 2.88103C20.1343 2.56778 20.4097 2.27793 20.7097 2.01535C20.4125 1.80029 20.0985 1.61288 19.7718 1.45425C19.4732 1.66471 19.1945 1.90022 18.9385 2.15738C19.2729 2.36637 19.5908 2.60785 19.8872 2.88103ZM19.7738 3.02912C19.4725 2.74995 19.1482 2.50463 18.8064 2.29404C18.5286 2.5903 18.2798 2.91296 18.0637 3.25725C18.3468 3.4811 18.615 3.73175 18.8647 4.00903L19.0665 4.23313C19.2591 3.80504 19.4969 3.40167 19.7738 3.02912ZM19.9481 1.33438C20.2637 1.49407 20.5673 1.68014 20.8553 1.89162C21.1279 1.66673 21.4193 1.46374 21.7267 1.28534C21.4371 1.11842 21.1349 0.974934 20.8232 0.856104C20.5171 0.992874 20.2247 1.15313 19.9481 1.33438ZM21.067 0.753334C21.3592 0.874674 21.6426 1.01736 21.9147 1.18041C22.1915 1.03188 22.4804 0.902914 22.7795 0.795364C22.5055 0.670654 22.2224 0.565434 21.9325 0.480854C21.6345 0.551414 21.3456 0.642824 21.067 0.753334ZM26.6248 16.9503C25.0195 13.7677 22.5124 11.0924 19.3787 9.28309L18.6858 8.88309V9.64059C22.0116 11.2483 24.7671 13.7999 26.6248 16.9503ZM26.0888 16.4345C24.2788 13.6209 21.7254 11.3348 18.6858 9.84709V10.4973C21.6299 11.8064 24.1791 13.8551 26.0888 16.4345ZM18.5001 10.4159V9.75749C18.3607 9.69119 18.2204 9.62659 18.0791 9.56369L17.3483 9.23839L17.4275 9.99179C17.7903 10.1224 18.1479 10.2639 18.5001 10.4159ZM17.4491 10.1972C17.8046 10.3271 18.155 10.4676 18.5001 10.6184V11.1932C18.1763 11.0677 17.8485 10.9511 17.5171 10.8436L17.4491 10.1972ZM17.2336 9.92319L17.1524 9.15109L15.8042 8.55089L16.0106 9.52169L16.8729 9.80189C16.9937 9.84119 17.1139 9.88159 17.2336 9.92319ZM16.0552 9.73149L16.8156 9.97849C16.9629 10.0264 17.1094 10.076 17.2551 10.1275L17.3239 10.7821C16.9577 10.6677 16.5872 10.5643 16.2127 10.4724L16.0552 9.73149ZM15.8067 9.45549L15.5945 8.45749L14.0184 7.75579C14.0658 7.98979 14.1271 8.22349 14.2027 8.45599L14.3764 8.99069L15.8067 9.45549ZM14.4473 9.20909L15.8512 9.66519L16.0126 10.4244C15.8893 10.3956 15.7656 10.3679 15.6415 10.3416L14.754 10.1529L14.4473 9.20909ZM14.1581 8.91979L14.026 8.51339C13.9344 8.23139 13.8632 7.94759 13.8116 7.66369L12.3058 6.99325C12.3254 7.45879 12.3974 7.92679 12.5248 8.38909L14.1581 8.91979ZM12.5885 8.60509L14.229 9.13809L14.5443 10.1083L13.0736 9.79569L12.845 9.28219C12.7455 9.05889 12.6602 8.83279 12.5885 8.60509ZM12.3145 8.32079C12.1949 7.85259 12.1301 7.37939 12.117 6.90919L11.7643 6.75217C11.4401 6.60783 11.1102 6.49317 10.7777 6.40701C10.7252 6.87428 10.7247 7.34889 10.7788 7.82179L12.3145 8.32079ZM10.8056 8.02579L12.3732 8.53509C12.4542 8.81209 12.5547 9.08679 12.6753 9.35779L12.8491 9.74799L11.1693 9.39089C10.9942 8.94449 10.8737 8.48659 10.8056 8.02579ZM10.5852 7.75889C10.538 7.29189 10.5423 6.82379 10.5958 6.36277C10.1952 6.27166 9.79163 6.22139 9.39023 6.20995C9.29783 6.60533 9.24363 7.0091 9.22853 7.41519C9.58593 7.46749 9.94383 7.55049 10.2989 7.66589L10.5852 7.75889ZM9.22443 7.60239C9.56403 7.65329 9.90403 7.73279 10.2415 7.84249L10.609 7.96189C10.6712 8.42809 10.7851 8.89189 10.953 9.34499L9.37333 9.00919C9.27013 8.54459 9.22103 8.07249 9.22443 7.60239ZM9.04363 7.39089C9.05943 6.99234 9.11193 6.59605 9.20023 6.20743C8.83333 6.20814 8.46893 6.24116 8.11133 6.30494C7.99353 6.65055 7.90653 7.00476 7.85043 7.36319C8.24393 7.33569 8.64313 7.34409 9.04363 7.39089ZM7.82393 7.55139C8.22433 7.52079 8.63103 7.52859 9.03893 7.57739C9.03383 8.04139 9.07853 8.50739 9.17423 8.96689L8.88023 8.90439C8.51483 8.82669 8.15013 8.78159 7.78913 8.76699C7.76163 8.36149 7.77333 7.95429 7.82393 7.55139ZM7.66013 7.37939C7.71223 7.02987 7.79293 6.68413 7.90203 6.34593C7.57513 6.41573 7.25443 6.51137 6.94336 6.63163C6.80742 6.93801 6.69739 7.25269 6.61311 7.57229C6.95453 7.47979 7.30463 7.41489 7.66013 7.37939ZM6.56226 7.77939C6.91121 7.67869 7.27003 7.60779 7.63473 7.56869C7.58753 7.96449 7.57673 8.36409 7.60263 8.76209C7.19963 8.75749 6.80177 8.79079 6.41343 8.85929C6.43169 8.49689 6.48123 8.13549 6.56226 7.77939ZM6.40671 9.04929C6.39848 9.45519 6.4294 9.86139 6.49913 10.2618C6.85976 10.2386 7.22723 10.2454 7.59873 10.2844L7.89723 10.3158C7.75403 9.86889 7.66093 9.41009 7.61743 8.94809C7.20673 8.94229 6.8016 8.97699 6.40671 9.04929ZM7.80453 8.95349C7.85033 9.42149 7.94853 9.88579 8.09973 10.3371L9.70573 10.5059C9.49143 10.0728 9.32963 9.62339 9.21913 9.16629L8.84163 9.08599C8.49443 9.01219 8.14783 8.96869 7.80453 8.95349ZM9.42123 9.20919C9.53723 9.66039 9.70483 10.1033 9.92563 10.529L11.6338 10.7085L11.4202 10.3386C11.2719 10.0818 11.1433 9.81899 11.0338 9.55199L9.42123 9.20919ZM11.2552 9.59909C11.3503 9.81809 11.4588 10.034 11.5811 10.2458L11.8621 10.7325L13.3574 10.8897L12.9424 9.95769L11.2552 9.59909ZM13.167 10.0054L13.5706 10.9121L14.4732 11.0069C14.5992 11.0202 14.7249 11.0347 14.8504 11.0505L14.6105 10.3123L13.167 10.0054ZM14.8203 10.3568L15.0543 11.0773C15.4365 11.1296 15.8159 11.1937 16.1922 11.2692L16.0553 10.6253C15.9051 10.5894 15.7543 10.5554 15.6029 10.5232L14.8203 10.3568ZM16.2556 10.6744L16.3907 11.3101C16.7317 11.3824 17.0699 11.4642 17.4051 11.5551L17.345 10.9834C16.986 10.8696 16.6228 10.7664 16.2556 10.6744ZM17.5383 11.0459L17.5974 11.6084C17.901 11.6943 18.202 11.7878 18.5001 11.8887V11.3925C18.1833 11.2683 17.8626 11.1527 17.5383 11.0459ZM18.6858 11.4665V11.9527C20.9555 12.7479 23.0543 13.9769 24.8621 15.5744C23.1043 13.8026 21.0029 12.404 18.6858 11.4665ZM24.1893 15.2465C22.5456 13.9048 20.6832 12.8573 18.6858 12.1496V12.562C20.6508 13.1457 22.5115 14.0514 24.1893 15.2465ZM18.5001 12.5079V12.0849C18.2089 11.9852 17.9149 11.8927 17.6184 11.8075L17.6692 12.291C17.948 12.3569 18.225 12.4293 18.5001 12.5079ZM17.6898 12.4868C17.9617 12.5521 18.2318 12.6236 18.5001 12.7011V13.7965C18.5001 15.0541 18.0839 16.2688 17.328 17.2565C17.7862 16.2893 17.9756 15.2068 17.8619 14.1249L17.6898 12.4868ZM17.4778 12.2468L17.4259 11.7533C17.0979 11.6629 16.7668 11.5815 16.433 11.5091L16.5506 12.0623C16.8616 12.116 17.1707 12.1775 17.4778 12.2468ZM16.5922 12.2581C16.8961 12.3118 17.1982 12.3731 17.4983 12.4419L17.6772 14.1443C17.8087 15.3952 17.5217 16.647 16.8728 17.7084C17.2276 16.6985 17.303 15.6019 17.0767 14.5376L16.5922 12.2581ZM16.3538 12.0294L16.2343 11.4672C15.8652 11.3915 15.493 11.3269 15.1182 11.2737L15.319 11.8918C15.6658 11.9281 16.0108 11.974 16.3538 12.0294ZM15.3819 12.0853C15.7215 12.1223 16.0594 12.1688 16.3952 12.2244L16.8951 14.5762C17.1554 15.801 17.0034 17.07 16.4748 18.1897C16.4731 18.1915 16.4714 18.1934 16.4696 18.1952C16.7144 17.1566 16.6739 16.0617 16.3387 15.0301L15.3819 12.0853ZM15.1173 11.8718L14.9139 11.2458C14.7609 11.2259 14.6076 11.2078 14.4538 11.1916L13.6579 11.108L13.966 11.8C14.3514 11.8121 14.7353 11.8361 15.1173 11.8718ZM14.0499 11.9886C14.4282 12.0023 14.805 12.0277 15.1798 12.0644L16.1621 15.0875C16.523 16.1981 16.5311 17.3845 16.1991 18.4875C16.1784 18.5103 16.1578 18.5332 16.1372 18.5562C16.2345 17.5535 16.0734 16.5334 15.6565 15.597L14.0499 11.9886ZM13.7603 11.7947L13.4446 11.0856L11.9768 10.9313L12.4731 11.7908H13.381C13.5076 11.7908 13.634 11.7921 13.7603 11.7947ZM12.5803 11.9765H13.381C13.5355 11.9765 13.6898 11.9784 13.8439 11.9823L15.4869 15.6725C15.9272 16.6617 16.0729 17.7472 15.9205 18.802C15.8866 18.8412 15.8529 18.8804 15.8194 18.9198C15.7793 17.9825 15.515 17.0595 15.0373 16.2321L12.5803 11.9765ZM12.2586 11.7908L11.7486 10.9073L10.0328 10.727C10.1503 10.9349 10.2808 11.1384 10.4246 11.3362L10.7548 11.7908H12.2586ZM10.8898 11.9765H12.3659L14.8764 16.3249C15.3743 17.1872 15.6327 18.1566 15.639 19.135C15.5952 19.1881 15.5517 19.2414 15.5085 19.2948C15.3489 18.4482 15.0037 17.6388 14.4876 16.9285L10.8898 11.9765ZM10.5253 11.7908L10.2744 11.4454C10.1 11.2054 9.94453 10.9574 9.80773 10.7033L8.16823 10.531C8.33073 10.9676 8.54383 11.3905 8.80783 11.7908H10.5253ZM8.93513 11.9765H10.6602L14.3374 17.0376C14.8695 17.7701 15.2142 18.6114 15.3538 19.4892C15.3021 19.5551 15.2507 19.6214 15.1999 19.6879C14.9452 18.9525 14.5446 18.268 14.0137 17.6784L9.38853 12.5415C9.22483 12.3597 9.07373 12.171 8.93513 11.9765ZM8.58673 11.7908C8.32833 11.3825 8.12043 10.9525 7.96273 10.5094L7.57933 10.4691C7.22623 10.432 6.87698 10.4249 6.53399 10.4457C6.62838 10.9063 6.77459 11.3578 6.97212 11.7908H8.58673ZM7.06057 11.9765H8.70873C8.87143 12.2149 9.05203 12.4453 9.25053 12.6658L13.8757 17.8027C14.4184 18.4053 14.8205 19.1105 15.0642 19.8678C15.0055 19.9466 14.9475 20.0258 14.8902 20.1054C14.5699 19.4966 14.1422 18.943 13.6212 18.4738L8.48433 13.8485C7.87793 13.3026 7.40273 12.6654 7.06057 11.9765ZM14.9845 20.2927C14.9934 20.3112 15.0022 20.3298 15.0109 20.3484C15.0545 20.277 15.0985 20.2059 15.143 20.135C15.139 20.12 15.1349 20.1051 15.1308 20.0902C15.0815 20.1574 15.0328 20.2249 14.9845 20.2927ZM15.2698 19.9031C15.2721 19.9106 15.2743 19.9181 15.2766 19.9256C15.3139 19.8679 15.3516 19.8104 15.3895 19.7531C15.3893 19.751 15.3891 19.7489 15.3888 19.7467C15.3489 19.7986 15.3092 19.8508 15.2698 19.9031ZM15.2047 20.3875C15.1705 20.4432 15.1366 20.4991 15.1029 20.5551C15.106 20.5623 15.109 20.5694 15.112 20.5766C15.143 20.5155 15.1744 20.4545 15.2061 20.3937C15.2056 20.3916 15.2052 20.3896 15.2047 20.3875ZM15.1572 23.0326C15.1486 23.0976 15.1403 23.1627 15.1323 23.2277C15.1379 23.2329 15.1435 23.2381 15.149 23.2434C15.1525 23.1747 15.1564 23.106 15.1607 23.0373C15.1595 23.0357 15.1584 23.0342 15.1572 23.0326ZM15.1381 23.4915C15.1273 23.4807 15.1164 23.4699 15.1055 23.4592C15.0964 23.542 15.0879 23.6249 15.08 23.7077C15.0968 23.7192 15.1136 23.7308 15.1304 23.7425C15.1324 23.6588 15.1349 23.5752 15.1381 23.4915ZM15.3134 23.8754C15.3145 23.81 15.316 23.7447 15.3178 23.6793C15.3191 23.6807 15.3204 23.6821 15.3217 23.6835C15.3246 23.7521 15.3279 23.8207 15.3316 23.8892C15.3256 23.8846 15.3195 23.88 15.3134 23.8754ZM15.1263 23.9677C15.1046 23.9519 15.0828 23.9362 15.0608 23.9206C15.0524 24.0205 15.0449 24.1204 15.0381 24.2203C15.0672 24.2341 15.0963 24.2481 15.1252 24.2624C15.1248 24.1642 15.1252 24.066 15.1263 23.9677ZM15.3115 24.3584C15.3107 24.2751 15.3105 24.1918 15.3109 24.1084C15.3229 24.1179 15.3348 24.1275 15.3467 24.1371C15.3523 24.2207 15.3585 24.3042 15.3652 24.3877C15.3474 24.3778 15.3295 24.3681 15.3115 24.3584ZM15.1272 24.4713C15.0935 24.454 15.0597 24.437 15.0256 24.4204C15.019 24.5377 15.0134 24.655 15.009 24.7723C15.0513 24.7845 15.0934 24.7971 15.1354 24.8103C15.1316 24.6973 15.1289 24.5843 15.1272 24.4713ZM15.3234 24.8725C15.3197 24.7725 15.3168 24.6723 15.3147 24.5721C15.3382 24.5853 15.3615 24.5986 15.3848 24.6121C15.3939 24.7099 15.4038 24.8077 15.4144 24.9052C15.3842 24.8941 15.3538 24.8832 15.3234 24.8725ZM15.143 25.0076C15.0965 24.9925 15.0498 24.9779 15.0028 24.964C14.9108 28.3434 15.7491 31.7128 17.4671 34.6885L20.3488 39.6797C20.7718 40.4124 21.3201 41.0277 21.951 41.5141C22.2582 41.2486 22.5393 40.9539 22.7901 40.6343C22.5314 40.3818 22.2904 40.104 22.0707 39.8016L18.6831 35.1389C16.5189 32.1602 15.3026 28.6318 15.143 25.0076ZM22.9035 40.4854C22.6583 40.2443 22.4297 39.9798 22.221 39.6925L18.8333 35.0298C16.7053 32.1009 15.503 28.6351 15.3319 25.0728C15.3675 25.0858 15.4029 25.0991 15.4382 25.1128C15.8941 28.8974 17.5047 32.4795 20.0898 35.3506L23.61 39.2601C23.4203 39.6965 23.1826 40.1072 22.9035 40.4854ZM22.9255 40.7627C22.6784 41.0757 22.4031 41.3654 22.1033 41.6278C22.4005 41.8428 22.7146 42.0302 23.0413 42.1887C23.3397 41.9784 23.6183 41.7431 23.8743 41.4861C23.5399 41.2772 23.2219 41.0358 22.9255 40.7627ZM24.0064 41.3494C23.6646 41.1389 23.3403 40.8937 23.0389 40.6146C23.3158 40.2423 23.5535 39.8392 23.7462 39.4114L23.9462 39.6336C24.1964 39.9114 24.4652 40.1626 24.7491 40.3868C24.533 40.7309 24.2842 41.0533 24.0064 41.3494ZM24.0378 41.5849C23.7902 41.8369 23.5217 42.0691 23.2347 42.2786C23.5402 42.4143 23.8558 42.5253 24.1781 42.6109C24.4682 42.443 24.7422 42.2531 24.9983 42.044C24.6677 41.9183 24.3463 41.765 24.0378 41.5849ZM25.1612 41.9064C24.8197 41.7828 24.4878 41.6293 24.1697 41.4466C24.4405 41.1543 24.6841 40.8374 24.8971 40.5003C25.2204 40.7408 25.5618 40.9476 25.9163 41.1204C25.6885 41.4028 25.436 41.666 25.1612 41.9064ZM26.0333 40.9707C26.2786 40.6472 26.4924 40.3004 26.6713 39.9356C26.3656 39.7423 26.072 39.5207 25.7942 39.2705L25.5721 39.0705C25.4252 39.5161 25.2309 39.9419 24.9944 40.3411C25.3232 40.5872 25.6714 40.7971 26.0333 40.9707ZM24.8462 40.2268C25.0843 39.8214 25.2778 39.3881 25.4208 38.9343L24.221 37.854C24.1398 38.3304 24.0064 38.789 23.8271 39.2237L24.0842 39.5093C24.322 39.7734 24.5771 40.0126 24.8462 40.2268ZM23.6888 39.0702C23.8603 38.637 23.985 38.1802 24.0567 37.7061L21.5112 35.414C18.5137 32.7151 16.4917 29.1345 15.7094 25.226C15.6848 25.215 15.6601 25.2041 15.6353 25.1934C16.1032 28.9024 17.6919 32.4099 20.2278 35.2263L23.6888 39.0702ZM15.6098 24.9813C15.6287 24.989 15.6477 24.9969 15.6665 25.0049C15.6511 24.9226 15.6362 24.8402 15.6219 24.7577C15.609 24.7493 15.596 24.741 15.583 24.7327C15.5914 24.8157 15.6003 24.8985 15.6098 24.9813ZM15.5611 24.5007C15.5678 24.5047 15.5744 24.5087 15.581 24.5127C15.5702 24.445 15.5597 24.3771 15.5496 24.3091C15.5481 24.3078 15.5465 24.3064 15.545 24.305C15.55 24.3703 15.5554 24.4355 15.5611 24.5007ZM15.8367 24.9039C15.8485 24.9683 15.8607 25.0326 15.8732 25.0968C15.8803 25.1001 15.8874 25.1035 15.8945 25.1068C15.8766 25.0406 15.8591 24.9742 15.842 24.9077C15.8402 24.9065 15.8384 24.9052 15.8367 24.9039ZM15.9607 25.3461C15.9469 25.3391 15.9331 25.3321 15.9192 25.3252C16.713 29.1419 18.7026 32.6353 21.6354 35.276L24.0864 37.4829C24.1137 37.2452 24.1277 37.0035 24.1277 36.7585V36.1976L22.9316 35.3286C19.5386 32.8634 17.0948 29.3398 15.9607 25.3461ZM24.1277 35.968L23.0408 35.1783C19.7309 32.7735 17.3333 29.3514 16.1896 25.4691C16.1915 25.4702 16.1934 25.4713 16.1953 25.4724C17.6738 29.4363 20.4654 32.7954 24.1277 34.9734V35.968ZM24.3134 36.3325V36.7585C24.3134 37.0556 24.2934 37.3479 24.2546 37.6344L25.4794 38.7371C25.6046 38.2884 25.6809 37.821 25.7027 37.3419L24.3134 36.3325ZM25.7089 37.1168L24.3134 36.1029V35.0824C24.3207 35.0866 24.3281 35.0909 24.3354 35.0951L25.6156 35.8342L25.6742 36.3923C25.6998 36.6358 25.7112 36.8776 25.7089 37.1168ZM25.8816 37.4718C25.8506 37.9541 25.7659 38.4242 25.6329 38.8754L25.9184 39.1325C26.1825 39.3702 26.4612 39.5815 26.7512 39.7664C26.9457 39.3383 27.0928 38.8871 27.1876 38.4207L25.8816 37.4718ZM27.2252 38.2185L25.892 37.2499C25.9006 36.961 25.89 36.6682 25.8589 36.3728L25.8144 35.949L27.3014 36.8075C27.3298 37.2863 27.3028 37.7591 27.2252 38.2185ZM27.284 36.583C27.2613 36.345 27.2247 36.1058 27.1738 35.8664L27.0571 35.3174L25.7067 34.7161C25.699 34.7127 25.6914 34.7093 25.6837 34.7059L25.7904 35.7207L27.284 36.583ZM25.5916 35.6059L25.4876 34.6169C25.0881 34.4328 24.6965 34.2353 24.3134 34.0248V34.8674C24.3516 34.8898 24.3899 34.9121 24.4282 34.9343L25.5916 35.6059ZM24.1277 34.7569V33.9214C20.8677 32.0817 18.2359 29.3007 16.5787 25.9433C18.0744 29.6005 20.7141 32.6991 24.1277 34.7569ZM17.0376 26.4284C18.6709 29.4676 21.1271 31.9919 24.1277 33.7078V32.9728C21.2384 31.4559 18.7893 29.2012 17.0376 26.4284ZM24.3134 33.0689V33.8126C24.6891 34.0217 25.0732 34.2183 25.465 34.4017L25.3777 33.5708C25.017 33.4144 24.6621 33.247 24.3134 33.0689ZM25.3554 33.3584C25.0022 33.2029 24.6548 33.0367 24.3134 32.8601V32.2111C24.6307 32.3587 24.9525 32.4974 25.2785 32.6271L25.3554 33.3584ZM25.5732 33.6542L25.6613 34.4921C25.7015 34.5104 25.7418 34.5285 25.7822 34.5465L27.0094 35.0929L26.8027 34.1202C26.3862 33.9789 25.9762 33.8234 25.5732 33.6542ZM26.7577 33.9085C26.3489 33.7671 25.9465 33.6118 25.551 33.4431L25.4732 32.7033C25.8385 32.844 26.2089 32.9733 26.5839 33.0911L26.7577 33.9085ZM26.5395 32.8822L26.3867 32.163C26.049 32.0681 25.7145 31.9638 25.3836 31.8503L25.4514 32.4957C25.8093 32.6356 26.1721 32.7645 26.5395 32.8822ZM25.2566 32.4182L25.1897 31.7826C24.8946 31.6777 24.6024 31.5655 24.3134 31.446V32.0061C24.6235 32.1521 24.938 32.2895 25.2566 32.4182ZM24.1277 31.9175V31.3681C21.8717 30.4072 19.8155 29.0052 18.0869 27.2315C19.7557 29.2038 21.816 30.7979 24.1277 31.9175ZM18.6697 27.5479C20.2646 29.0756 22.115 30.2985 24.1277 31.1661V30.9952C24.1277 30.8971 24.1302 30.7993 24.135 30.7018C22.158 29.9728 20.3077 28.9097 18.6697 27.5479ZM24.3179 30.7681C24.3149 30.8436 24.3134 30.9193 24.3134 30.9952V31.2449C24.5953 31.3628 24.8803 31.4737 25.1682 31.5776L25.1108 31.0312C24.8445 30.9494 24.5801 30.8617 24.3179 30.7681ZM25.0897 30.8303C24.8342 30.7506 24.5805 30.6654 24.3289 30.5748C24.4226 29.3088 24.9373 28.1084 25.7929 27.1669C25.2004 28.2215 24.9437 29.4414 25.0718 30.6605L25.0897 30.8303ZM25.3036 31.0893L25.3622 31.6464C25.6857 31.7591 26.0128 31.8629 26.343 31.9576L26.2101 31.3324C25.9057 31.2589 25.6034 31.1778 25.3036 31.0893ZM26.1673 31.1308C25.8702 31.0576 25.5752 30.977 25.2826 30.8893L25.2565 30.641C25.1082 29.2302 25.4922 27.8183 26.3273 26.6796C25.8485 27.7903 25.7207 29.0301 25.9756 30.2289L26.1673 31.1308ZM26.3673 31.1789C26.7008 31.2571 27.0368 31.3261 27.375 31.3858L26.829 29.7053C26.4504 28.5401 26.4477 27.2941 26.8075 26.1398C26.0965 27.3593 25.8624 28.8031 26.1572 30.1903L26.3673 31.1789ZM26.2169 17.1758C24.079 15.1038 21.4907 13.5982 18.6858 12.7558V13.7965C18.6858 15.3556 18.0664 16.8507 16.964 17.9531C16.9376 17.9796 16.9112 18.0061 16.8849 18.0327C16.7909 18.1718 16.6906 18.3072 16.5841 18.4387C16.5604 18.468 16.5368 18.4973 16.5133 18.5267C16.4344 18.6746 16.3489 18.8196 16.2569 18.9613C16.2361 18.9934 16.2154 19.0254 16.1948 19.0576C16.1319 19.2125 16.0622 19.3652 15.9857 19.5153C15.9686 19.5489 15.9516 19.5824 15.9347 19.6161C15.8883 19.7772 15.8348 19.9368 15.7743 20.0945C15.7608 20.1298 15.7473 20.165 15.734 20.2003C15.7047 20.3653 15.6682 20.5296 15.6245 20.6927C15.6146 20.7295 15.6049 20.7663 15.5953 20.8031C15.5834 20.9699 15.5643 21.1368 15.5379 21.3033C15.5319 21.3408 15.5261 21.3784 15.5204 21.416C15.5259 21.5832 15.5244 21.7511 15.5156 21.9194C15.5136 21.9569 15.5118 21.9944 15.51 22.0319C15.5331 22.1981 15.5492 22.3658 15.5581 22.5346C15.56 22.5717 15.5621 22.6087 15.5642 22.6457C15.6047 22.809 15.6384 22.9745 15.6649 23.142C15.6707 23.1786 15.6766 23.2152 15.6826 23.2518C15.74 23.4099 15.7907 23.5711 15.8346 23.7348C15.8444 23.7712 15.8542 23.8076 15.8642 23.8439C15.9375 23.9946 16.0045 24.149 16.065 24.3067C16.0787 24.3423 16.0925 24.3778 16.1063 24.4133C16.1946 24.5552 16.2772 24.7013 16.3536 24.8513C16.3706 24.8846 16.3876 24.9178 16.4048 24.9509C16.508 25.0834 16.6059 25.2208 16.6981 25.3628C16.7185 25.3941 16.739 25.4254 16.7595 25.4566C16.876 25.5776 16.9877 25.7039 17.0942 25.8354C17.1176 25.8644 17.1411 25.8932 17.1647 25.922C17.2934 26.0302 17.4178 26.1443 17.5376 26.2641C19.4288 28.1553 21.6885 29.5934 24.1479 30.5085C24.2625 29.1277 24.8623 27.8257 25.8494 26.8385C26.0828 26.6052 26.3093 26.3662 26.5287 26.122C26.6726 25.9385 26.8127 25.7526 26.9491 25.5645C27.0726 25.3677 27.1922 25.1689 27.3078 24.9683C27.4114 24.7572 27.5107 24.5445 27.6058 24.3304C27.6861 24.1111 27.7621 23.8906 27.8338 23.6692C27.8906 23.4434 27.943 23.2169 27.991 22.9899C28.0241 22.7585 28.0527 22.5269 28.0768 22.2952C28.0855 22.0601 28.0897 21.8253 28.0895 21.591C28.0736 21.3566 28.0532 21.1229 28.0284 20.8901C27.9882 20.6597 27.9437 20.4306 27.895 20.2027C27.8314 19.9795 27.7637 19.7579 27.692 19.5381C27.6054 19.3223 27.5148 19.1086 27.4204 18.8971C27.31 18.6883 27.1958 18.482 27.0778 18.2783C26.9476 18.0845 26.8139 17.8934 26.6769 17.7053C26.5266 17.5256 26.3733 17.349 26.2169 17.1758ZM17.5391 26.8546C19.2254 29.3326 21.4888 31.3595 24.1277 32.7627V32.1236C21.5683 30.8992 19.3104 29.1005 17.5391 26.8546ZM25.4958 15.9696C23.6786 13.7073 21.3468 11.8982 18.6858 10.7007V11.2663C21.2789 12.3033 23.6072 13.9111 25.4958 15.9696ZM25.2008 42.1172C25.5008 42.2201 25.8076 42.3006 26.1185 42.3585C25.8691 42.5245 25.6055 42.6739 25.3288 42.8048C25.0277 42.7824 24.729 42.7384 24.4352 42.6734C24.7053 42.5061 24.961 42.32 25.2008 42.1172ZM6.40624 7.63209C6.10311 7.72519 5.80756 7.84029 5.522 7.97609C5.62623 7.69539 5.75161 7.41959 5.89851 7.15109C6.15525 6.99224 6.42274 6.85231 6.69865 6.73216C6.5785 7.02628 6.48107 7.32709 6.40624 7.63209ZM41.9349 28.6372C41.8667 28.7541 41.795 28.8686 41.7199 28.9807C41.7077 29.1164 41.6912 29.2525 41.6702 29.3888C41.7735 29.1463 41.8621 28.8954 41.9349 28.6372ZM41.3414 30.0497C41.3708 29.9403 41.3975 29.8295 41.4213 29.7174C41.4514 29.5759 41.4765 29.4344 41.4966 29.2932C41.3369 29.5035 41.1646 29.7037 40.9808 29.8927C40.9779 30.1558 40.9589 30.4207 40.923 30.6859C41.0746 30.4833 41.2144 30.2709 41.3414 30.0497ZM40.6869 30.9822C40.7437 30.6814 40.7777 30.3802 40.7901 30.0808C40.5605 30.2982 40.3151 30.4989 40.0556 30.6811C40.0787 30.9943 40.079 31.3106 40.0556 31.6275C40.2808 31.4281 40.4919 31.2125 40.6869 30.9822ZM40.0304 31.894C40.2327 31.7254 40.4248 31.5445 40.6054 31.3523C40.5706 31.4906 40.5309 31.6287 40.4862 31.7664C40.4507 31.8754 40.4126 31.9829 40.3719 32.0887C40.2228 32.295 40.0618 32.4913 39.8901 32.6766C39.9535 32.4167 40.0001 32.1554 40.0304 31.894ZM39.854 31.7987C39.8886 31.4653 39.896 31.132 39.8774 30.8019C39.5813 30.9954 39.2684 31.1653 38.9413 31.3089C38.9997 31.6574 39.0298 32.0112 39.0306 32.3666C39.32 32.1992 39.5953 32.0092 39.854 31.7987ZM39.0275 32.5818C39.3047 32.4277 39.57 32.2536 39.8211 32.0613C39.7775 32.3576 39.7122 32.6535 39.6244 32.9468C39.4062 33.1556 39.1736 33.3481 38.9286 33.5231C38.985 33.2103 39.0177 32.8958 39.0275 32.5818ZM38.8443 32.4702C38.8495 32.1051 38.8228 31.7414 38.7653 31.3831C38.3996 31.5309 38.0173 31.6462 37.622 31.7255C37.7301 32.1095 37.8027 32.5026 37.8388 32.8994C38.1875 32.7854 38.5238 32.6414 38.8443 32.4702ZM37.8533 33.09C38.1937 32.9813 38.5228 32.8449 38.8376 32.6834C38.8216 33.0136 38.7794 33.3443 38.7102 33.6723C38.4308 33.8547 38.1369 34.0149 37.8315 34.1512C37.8679 33.7977 37.875 33.4427 37.8533 33.09ZM37.6573 32.9558C37.6231 32.5512 37.5499 32.1504 37.4387 31.7595C37.0825 31.8203 36.7164 31.852 36.343 31.852H36.0424C36.2315 32.2815 36.3721 32.728 36.4636 33.183C36.8727 33.1458 37.2721 33.0689 37.6573 32.9558ZM36.4977 33.3663C36.8992 33.3288 37.2914 33.2541 37.6705 33.1453C37.6902 33.5076 37.6787 33.8722 37.6354 34.2348C37.2988 34.3715 36.9493 34.4796 36.5906 34.5565C36.5962 34.158 36.5651 33.7595 36.4977 33.3663ZM36.277 33.1971C36.1826 32.7365 36.0364 32.285 35.8388 31.852H34.2243C34.4828 32.2603 34.6906 32.6903 34.8483 33.1334L35.2319 33.1737C35.5848 33.2108 35.934 33.2179 36.277 33.1971ZM34.9137 33.327L35.2125 33.3584C35.5839 33.3974 35.9513 33.4042 36.3118 33.381C36.3815 33.7814 36.4124 34.1876 36.4042 34.5936C36.0093 34.6658 35.6042 34.7005 35.1935 34.6947C35.1501 34.2327 35.057 33.7739 34.9137 33.327ZM34.6428 33.1118C34.4803 32.6752 34.2673 32.2523 34.0032 31.852H32.2863L32.5372 32.1973C32.7116 32.4373 32.8671 32.6853 33.004 32.9395L34.6428 33.1118ZM33.1059 33.137L34.7113 33.3057C34.8625 33.757 34.9607 34.2213 35.0064 34.6893C34.6632 34.6741 34.3166 34.6306 33.9694 34.5568L33.5925 34.4767C33.482 34.0195 33.3203 33.5701 33.1059 33.137ZM32.7788 32.9159C32.6613 32.7079 32.5307 32.5044 32.3869 32.3064L32.0567 31.852H30.5796C30.5709 31.852 30.5623 31.852 30.5536 31.8519L31.0638 32.7356L32.7788 32.9159ZM31.1786 32.9344L32.886 33.1139C33.1068 33.5396 33.2744 33.9825 33.3904 34.4337L31.7786 34.0911C31.6691 33.8239 31.5403 33.561 31.3919 33.3039L31.1786 32.9344ZM30.8355 32.7116L30.3383 31.8504C29.8985 31.8447 29.4605 31.8235 29.025 31.787L29.3677 32.5569C29.4118 32.5618 29.4559 32.5666 29.5001 32.5713L30.8355 32.7116ZM29.4552 32.7533C29.4637 32.7542 29.4722 32.7551 29.4807 32.756L30.9503 32.9104L31.2311 33.3968C31.3535 33.6087 31.4621 33.8248 31.5572 34.044L29.8702 33.6854L29.4552 32.7533ZM29.9636 33.8951L30.1371 34.2849C30.2578 34.556 30.3584 34.831 30.4394 35.1082L32.0067 35.6175C31.9386 35.1566 31.8182 34.6986 31.6431 34.2521L29.9636 33.8951ZM31.8594 34.2981C32.0273 34.7513 32.1412 35.2151 32.2033 35.6814L32.5692 35.8003C32.907 35.91 33.2472 35.9896 33.5871 36.0405C33.5906 35.5703 33.5415 35.0983 33.4383 34.6337L31.8594 34.2981ZM33.6374 34.676C33.7331 35.1355 33.7777 35.6014 33.7726 36.0655C34.1804 36.1141 34.5868 36.1219 34.987 36.0913C35.0376 35.6885 35.0493 35.2813 35.0219 34.8758C34.6608 34.8612 34.2961 34.8161 33.9308 34.7384L33.6374 34.676ZM35.2083 34.8807C35.2342 35.2787 35.2234 35.6783 35.1762 36.074C35.541 36.0349 35.8997 35.964 36.2487 35.8633C36.3297 35.5072 36.3792 35.1458 36.3975 34.7835C36.0092 34.852 35.6114 34.8853 35.2083 34.8807ZM36.5851 34.7475C36.5698 35.1006 36.5256 35.4529 36.4525 35.8007C36.7705 35.6971 37.0794 35.5684 37.3763 35.4162C37.4795 35.0973 37.556 34.7728 37.6065 34.4461C37.2765 34.5738 36.935 34.675 36.5851 34.7475ZM37.8059 34.365C37.7634 34.6761 37.6979 34.9856 37.6092 35.2907C37.8713 35.1422 38.1229 34.9749 38.3619 34.7899C38.4799 34.5075 38.5757 34.2201 38.65 33.93C38.38 34.0951 38.0979 34.2406 37.8059 34.365ZM38.8756 33.7855C38.8182 34.0422 38.7446 34.2972 38.6544 34.549C38.8449 34.3822 39.0259 34.2034 39.1961 34.0133C39.2473 33.9129 39.2962 33.8106 39.3426 33.7064C39.4016 33.5739 39.4556 33.4405 39.5047 33.3063C39.3048 33.4788 39.0947 33.6388 38.8756 33.7855ZM39.788 33.0469C39.748 33.1769 39.7037 33.3062 39.655 33.4349C39.806 33.2196 39.9445 32.9932 40.069 32.7563C39.9783 32.8563 39.8846 32.9532 39.788 33.0469ZM38.8252 34.6459C38.7242 34.7361 38.6204 34.8231 38.5142 34.9066C38.4606 35.0321 38.4028 35.1566 38.3407 35.28C38.5141 35.0809 38.6761 34.8693 38.8252 34.6459ZM37.8237 35.807C37.8854 35.7123 37.9449 35.6153 38.0021 35.5162C38.0747 35.3906 38.1424 35.2634 38.2053 35.135C37.9883 35.2858 37.7624 35.423 37.5291 35.5461C37.445 35.7957 37.345 36.0419 37.2288 36.2831C37.4358 36.1372 37.6345 35.9783 37.8237 35.807ZM36.9127 36.4921C37.0598 36.2233 37.1853 35.9473 37.2896 35.6662C37.0038 35.8022 36.708 35.9174 36.4047 36.0106C36.3298 36.3157 36.2323 36.6168 36.1121 36.9111C36.3881 36.7909 36.6558 36.6509 36.9127 36.4921ZM36.0057 37.1567C36.2505 37.0588 36.4894 36.946 36.7209 36.8188C36.645 36.9397 36.5646 37.0588 36.4794 37.176C36.412 37.2688 36.3425 37.3592 36.271 37.4473C36.0651 37.5977 35.851 37.7348 35.63 37.8582C35.7708 37.6304 35.896 37.3961 36.0057 37.1567ZM35.8674 37.0116C36.0034 36.705 36.1135 36.3902 36.1978 36.0704C35.8564 36.1629 35.5063 36.2278 35.1508 36.2634C35.0986 36.6129 35.0179 36.9588 34.9088 37.2971C35.2357 37.2273 35.5563 37.1318 35.8674 37.0116ZM34.8393 37.5009C35.1506 37.44 35.4566 37.3564 35.7549 37.2511C35.6218 37.5196 35.4682 37.781 35.2938 38.0329C35.0219 38.1639 34.7412 38.2751 34.4542 38.3657C34.6045 38.0856 34.7329 37.7965 34.8393 37.5009ZM34.6995 37.338C34.8174 36.9923 34.9044 36.6381 34.9605 36.2795C34.5672 36.3071 34.1682 36.2986 33.7679 36.2519C33.7521 36.6505 33.6996 37.0468 33.6113 37.4354C33.978 37.4347 34.3421 37.4017 34.6995 37.338ZM33.5662 37.6211C33.9233 37.6229 34.2782 37.595 34.6273 37.5387C34.51 37.8479 34.3676 38.1495 34.2003 38.4401C33.8785 38.527 33.5498 38.5886 33.2175 38.6237C33.3614 38.2987 33.4778 37.9633 33.5662 37.6211ZM33.4213 37.4329C33.5137 37.0375 33.568 36.6338 33.583 36.2276C33.2253 36.1754 32.8672 36.0923 32.5119 35.9769L32.227 35.8843C32.2742 36.3512 32.2699 36.8193 32.2163 37.2802C32.6167 37.3712 33.0201 37.4214 33.4213 37.4329ZM32.1921 37.4651C32.5853 37.5534 32.9812 37.6035 33.3752 37.6173C33.282 37.9679 33.1584 38.3112 33.0051 38.6426C32.6429 38.6686 32.2774 38.6633 31.9126 38.6257C32.041 38.2485 32.1347 37.8599 32.1921 37.4651ZM32.0344 37.236C32.087 36.7688 32.0875 36.2942 32.0335 35.8214L30.4981 35.3226C30.6177 35.7908 30.6824 36.2639 30.6955 36.734L31.0473 36.8907C31.3717 37.0351 31.7017 37.1498 32.0344 37.236ZM30.6979 36.9384L30.9718 37.0603C31.3131 37.2123 31.6605 37.3323 32.0107 37.4217C31.9533 37.824 31.8572 38.2198 31.7239 38.6034C31.3261 38.55 30.93 38.4579 30.5413 38.3255C30.6428 37.8727 30.696 37.4076 30.6979 36.9384ZM30.4979 38.5069C30.3995 38.8935 30.2658 39.2702 30.0986 39.632C30.4575 39.7075 30.8206 39.7509 31.1836 39.7629C31.3707 39.4493 31.5295 39.1209 31.6588 38.7819C31.2684 38.7271 30.8798 38.6358 30.4979 38.5069ZM31.8484 38.8057C31.7247 39.1367 31.5738 39.4582 31.3968 39.7663C31.731 39.766 32.0643 39.7392 32.3935 39.6863C32.5903 39.4148 32.7634 39.1298 32.9123 38.8346C32.5592 38.8541 32.2033 38.8448 31.8484 38.8057ZM33.1271 38.8191C32.9904 39.102 32.8325 39.376 32.6538 39.6388C32.9486 39.5787 33.2392 39.4975 33.5233 39.3956C33.723 39.1634 33.903 38.9196 34.0634 38.6665C33.7559 38.74 33.4429 38.7911 33.1271 38.8191ZM34.3227 38.5989C34.1886 38.8254 34.0397 39.0453 33.876 39.257C34.1085 39.1574 34.3356 39.0435 34.556 38.9154C34.6363 38.8354 34.7149 38.7527 34.7917 38.6674C34.8885 38.5599 34.9809 38.45 35.0689 38.3378C34.8255 38.44 34.5762 38.5271 34.3227 38.5989ZM35.4185 38.1787C35.3401 38.2903 35.2577 38.3999 35.1713 38.5076C35.3821 38.3491 35.5844 38.176 35.7767 37.9886C35.6592 38.0558 35.5397 38.1192 35.4185 38.1787ZM34.0079 39.4022C33.884 39.4567 33.7587 39.5072 33.6321 39.5537C33.5425 39.6563 33.4491 39.7567 33.352 39.8547C33.5781 39.7191 33.7972 39.5683 34.0079 39.4022ZM32.6975 40.1961C32.7856 40.1249 32.8723 40.051 32.9574 39.9743C33.065 39.8775 33.1685 39.7777 33.2678 39.6754C33.0151 39.7515 32.7582 39.8121 32.4986 39.857C32.3417 40.0682 32.1707 40.2712 31.9858 40.4646C32.2273 40.3899 32.465 40.3004 32.6975 40.1961ZM31.6206 40.5657C31.8433 40.3557 32.0478 40.1321 32.2337 39.8972C31.9202 39.9382 31.6035 39.9563 31.2864 39.9512C31.121 40.2182 30.9353 40.4742 30.7301 40.7169C31.0296 40.6878 31.3273 40.6374 31.6206 40.5657ZM30.553 40.9176C30.8159 40.9001 31.0778 40.8666 31.3372 40.8173C31.2276 40.9088 31.1142 40.9973 30.997 41.0824C30.9044 41.1497 30.8107 41.214 30.7159 41.2754C30.4736 41.3549 30.2276 41.4192 29.9795 41.4683C30.1835 41.2953 30.3748 41.1113 30.553 40.9176ZM30.4663 40.7369C30.6903 40.4875 30.8922 40.2222 31.0712 39.9441C30.7179 39.9267 30.3649 39.8802 30.0159 39.8042C29.8583 40.1205 29.6747 40.4244 29.4664 40.7124C29.7989 40.747 30.1333 40.7551 30.4663 40.7369ZM29.3373 40.8847C29.6522 40.9229 29.9691 40.938 30.2853 40.9299C30.0759 41.1441 29.8491 41.3451 29.6056 41.5307C29.3064 41.5714 29.005 41.5904 28.704 41.588C28.9335 41.3681 29.1449 41.1329 29.3373 40.8847ZM28.5069 41.7691C28.3094 41.9432 28.0999 42.1062 27.8788 42.257C28.1307 42.2341 28.382 42.1959 28.6313 42.1422C28.7322 42.0909 28.8322 42.0367 28.9314 41.9794C29.0569 41.907 29.1789 41.8309 29.2975 41.7513C29.0343 41.7733 28.7703 41.7792 28.5069 41.7691ZM29.6792 41.7079C29.5702 41.7897 29.458 41.8685 29.3426 41.9442C29.592 41.8586 29.8377 41.7565 30.0783 41.6378C29.9459 41.6654 29.8127 41.6887 29.6792 41.7079ZM27.9594 42.4358C27.8247 42.4494 27.6899 42.4588 27.5551 42.4639C27.4382 42.5338 27.3184 42.6004 27.1958 42.6636C27.4527 42.6045 27.7077 42.5287 27.9594 42.4358ZM31.4025 41.0041C31.5092 40.9169 31.6125 40.8269 31.7122 40.7343C31.8429 40.7013 31.9727 40.6642 32.1014 40.623C31.8748 40.766 31.6413 40.8931 31.4025 41.0041ZM36.8402 36.9773C36.915 36.8611 36.9856 36.7433 37.052 36.6241C37.1664 36.5521 37.2787 36.4765 37.3887 36.3973C37.2169 36.604 37.0336 36.7974 36.8402 36.9773ZM40.768 31.4658C40.8031 31.3323 40.8338 31.1986 40.8601 31.0648C40.9466 30.9611 41.03 30.8546 41.11 30.7454C41.0106 30.9948 40.8961 31.2352 40.768 31.4658ZM21.2687 43.452C21.1365 43.4233 21.0054 43.3905 20.8756 43.3537C20.7428 43.3841 20.6083 43.4104 20.4722 43.4326C20.7347 43.4558 21.0007 43.4626 21.2687 43.452ZM19.742 43.3241C19.855 43.3183 19.9686 43.3095 20.0825 43.2975C20.2264 43.2824 20.3687 43.2625 20.5092 43.238C20.2599 43.1511 20.0163 43.0491 19.7798 42.9328C19.5287 43.0114 19.271 43.0751 19.0078 43.1229C19.2473 43.2044 19.4924 43.2718 19.742 43.3241ZM18.6529 42.9899C18.9566 42.951 19.2534 42.8903 19.5419 42.8096C18.1392 42.0464 17.0149 40.7656 16.4825 39.127L14.7015 33.6458C13.7625 30.7558 13.5532 27.7093 14.053 24.7678C13.9627 24.7571 13.872 24.7485 13.7811 24.7421C13.155 27.3767 13.1105 30.1422 13.6843 32.8415L14.8826 38.479C15.3317 40.5918 16.7941 42.229 18.6529 42.9899ZM13.5926 24.732C12.9676 27.3832 12.9255 30.1648 13.5027 32.8801L14.7009 38.5176C15.1383 40.5752 16.5091 42.1946 18.2758 43.0269C18.1334 43.0365 17.9897 43.0414 17.8448 43.0414C17.7303 43.0414 17.6166 43.0384 17.5036 43.0323C15.2076 42.2934 13.4456 40.2588 13.1772 37.7057L12.5748 31.9739C12.3162 29.5134 12.5573 27.052 13.257 24.728H13.381C13.4517 24.728 13.5222 24.7294 13.5926 24.732ZM13.8255 24.5592C13.9123 24.5657 13.9989 24.5742 14.085 24.5846C14.1149 24.4188 14.1471 24.2533 14.1815 24.0882C14.1102 24.0665 14.0384 24.0462 13.9661 24.0273C13.9166 24.2039 13.8697 24.3812 13.8255 24.5592ZM13.7856 23.9833C13.7331 24.1707 13.6836 24.359 13.637 24.5479C13.5519 24.5442 13.4665 24.5423 13.381 24.5423H13.314C13.3783 24.3368 13.4461 24.1324 13.5176 23.9292C13.6075 23.9451 13.6969 23.9631 13.7856 23.9833ZM14.0171 23.8487C14.0853 23.8666 14.153 23.8857 14.2204 23.9059C14.2518 23.7622 14.285 23.6187 14.3199 23.4756C14.2655 23.4483 14.2106 23.4219 14.1552 23.3963C14.1072 23.5466 14.0612 23.6974 14.0171 23.8487ZM13.9844 23.3208C13.9329 23.4814 13.8837 23.6426 13.8366 23.8044C13.7519 23.7851 13.6667 23.7675 13.5809 23.7519C13.6435 23.5796 13.7086 23.4081 13.7763 23.2376C13.8463 23.264 13.9157 23.2918 13.9844 23.3208ZM14.213 23.2185C14.2643 23.242 14.3153 23.2662 14.3659 23.2911C14.3977 23.1661 14.4309 23.0414 14.4653 22.9169C14.4257 22.8881 14.3858 22.8599 14.3455 22.8321C14.2999 22.9604 14.2557 23.0893 14.213 23.2185ZM14.1861 22.7262C14.1364 22.8648 14.0885 23.004 14.0422 23.1436C13.9772 23.1164 13.9117 23.0903 13.8457 23.0654C13.9054 22.9195 13.9669 22.7743 14.0303 22.6299C14.0828 22.6612 14.1347 22.6933 14.1861 22.7262ZM14.4106 22.6517C14.447 22.6763 14.4832 22.7014 14.519 22.7269C14.5504 22.6182 14.5827 22.5098 14.616 22.4016C14.5894 22.3748 14.5624 22.3482 14.5352 22.3219C14.4926 22.4315 14.4511 22.5414 14.4106 22.6517ZM14.3892 22.1855C14.3419 22.3057 14.2959 22.4264 14.2511 22.5475C14.2033 22.5173 14.1551 22.4879 14.1064 22.4591C14.1624 22.3349 14.2198 22.2114 14.2786 22.0884C14.3159 22.1203 14.3528 22.1527 14.3892 22.1855ZM14.6089 22.1355C14.6323 22.1576 14.6556 22.1799 14.6787 22.2023C14.7087 22.1088 14.7394 22.0155 14.7709 21.9224C14.7551 21.9006 14.7392 21.8789 14.7232 21.8574C14.6843 21.9498 14.6462 22.0425 14.6089 22.1355ZM14.5929 21.689C14.5484 21.793 14.505 21.8974 14.4625 22.0021C14.4294 21.9729 14.396 21.9442 14.3623 21.9158C14.414 21.8104 14.4668 21.7054 14.5206 21.601C14.545 21.6301 14.5691 21.6594 14.5929 21.689ZM14.3896 21.45C14.3568 21.4135 14.3235 21.3774 14.2897 21.3418C14.2184 21.4579 14.1484 21.5748 14.0797 21.6924C14.1252 21.7261 14.1701 21.7605 14.2145 21.7955C14.2717 21.6798 14.33 21.5646 14.3896 21.45ZM14.1312 21.9664C14.0835 21.9283 14.0352 21.8909 13.9862 21.8543C13.908 21.9914 13.8316 22.1294 13.757 22.2683C13.8201 22.3 13.8825 22.3329 13.9443 22.3668C14.005 22.2326 14.0673 22.0992 14.1312 21.9664ZM13.8683 22.5369C13.803 22.5008 13.7368 22.466 13.6699 22.4324C13.5848 22.5949 13.5021 22.7585 13.4219 22.9234C13.5056 22.9479 13.5886 22.9743 13.6709 23.0024C13.7346 22.8464 13.8004 22.6913 13.8683 22.5369ZM13.6014 23.1749C13.5152 23.1456 13.4282 23.1183 13.3403 23.0931C13.2481 23.2877 13.1592 23.484 13.0738 23.6817L13.1403 23.6886C13.2255 23.6976 13.3103 23.7084 13.3946 23.721C13.4607 23.538 13.5296 23.3559 13.6014 23.1749ZM13.3312 23.8994C13.2614 23.8894 13.1913 23.8807 13.1209 23.8733L12.9977 23.8604C12.9031 24.0859 12.813 24.3132 12.7275 24.5423H13.1196C13.1862 24.3268 13.2568 24.1124 13.3312 23.8994ZM13.0632 24.728H12.6592C11.9399 26.7191 11.5619 28.8376 11.5619 30.9952V36.7585C11.5619 39.8638 13.8146 42.4429 16.7751 42.9507C14.7453 42.0368 13.242 40.0986 12.9925 37.7251L12.3901 31.9933C12.1309 29.527 12.3687 27.0596 13.0632 24.728ZM12.5294 24.5423C12.6165 24.3064 12.7084 24.0723 12.8049 23.8401L6.24642 23.1508C2.8184 22.7905 0.29843 19.8148 0.46085 16.4148C0.28196 16.9981 0.1857 17.6175 0.1857 18.2594C0.1857 21.7294 2.99866 24.5423 6.46862 24.5423H12.5294ZM0.7187 15.723C0.70092 15.8346 0.68601 15.9472 0.67407 16.0609C0.31136 19.5118 2.81487 22.6034 6.26583 22.9661L12.8804 23.6613C12.9692 23.4539 13.0618 23.2481 13.1581 23.044C13.0898 23.0268 13.0209 23.0108 12.9517 22.9961L6.19042 21.5589C3.08448 20.8987 0.97692 18.1117 1.06823 15.0465C0.93862 15.2638 0.82177 15.4897 0.7187 15.723ZM1.27201 14.727C1.01805 17.8301 3.10289 20.7128 6.22903 21.3773L12.9903 22.8145C13.0741 22.8323 13.1573 22.8518 13.2398 22.8732C13.3246 22.6981 13.4122 22.5242 13.5025 22.3518C13.2995 22.258 13.09 22.1758 12.8751 22.106L6.30107 19.9699C3.63426 19.1034 1.91511 16.6689 1.83271 14.0187C1.62948 14.2407 1.44199 14.4774 1.27201 14.727ZM1.82998 13.751C1.64625 13.94 1.47397 14.1402 1.31426 14.3504C1.33444 14.209 1.35955 14.0672 1.3897 13.9254C1.41349 13.8134 1.44012 13.7028 1.46951 13.5936C1.59636 13.3725 1.73613 13.1602 1.88768 12.9576C1.85179 13.2229 1.83278 13.4878 1.82998 13.751ZM2.01537 13.8273C2.01882 16.4727 3.70607 18.9315 6.35846 19.7933L12.9325 21.9294C13.1577 22.0025 13.377 22.0888 13.5896 22.1874C13.6693 22.0389 13.7511 21.8914 13.8348 21.7449C13.5404 21.5395 13.2252 21.3609 12.8925 21.2128L6.57779 18.4013C4.39326 17.4287 3.01335 15.394 2.77539 13.176C2.50494 13.3729 2.25079 13.5908 2.01537 13.8273ZM2.756 12.9616C2.4962 13.144 2.25044 13.345 2.02064 13.5627C2.03297 13.2633 2.067 12.9622 2.12375 12.6612C2.31906 12.4306 2.53047 12.2146 2.75603 12.0149C2.73261 12.3319 2.73291 12.6483 2.756 12.9616ZM2.9499 13.0535C3.14878 15.2476 4.49777 17.2719 6.65332 18.2317L12.9681 21.0432C13.3067 21.194 13.6279 21.3753 13.9282 21.5836C14.0025 21.4566 14.0784 21.3304 14.1558 21.2051C13.8134 20.867 13.4267 20.571 13.0029 20.3263L7.01663 16.8701C5.33515 15.8993 4.25442 14.2876 3.90485 12.5217C3.57 12.6715 3.25065 12.8498 2.9499 13.0535ZM3.87051 12.3337C3.54337 12.4773 3.2304 12.6473 2.93426 12.8408C2.91563 12.5106 2.92306 12.1772 2.95771 11.8437C3.21646 11.6332 3.49185 11.4432 3.78125 11.2758C3.78201 11.6313 3.81209 11.9851 3.87051 12.3337ZM3.78438 11.0606C3.79418 10.7465 3.82697 10.4319 3.8834 10.119C3.63841 10.2939 3.40576 10.4864 3.18756 10.6952C3.0996 10.9886 3.03423 11.2846 2.99063 11.5811C3.24181 11.3888 3.5071 11.2147 3.78438 11.0606ZM2.78132 11.7484C2.81165 11.4868 2.8583 11.2253 2.92177 10.9652C2.74955 11.1511 2.58807 11.348 2.43854 11.555C2.39793 11.6605 2.35991 11.7676 2.32457 11.8764C2.27976 12.0143 2.23999 12.1526 2.20513 12.2911C2.38613 12.0985 2.57861 11.9173 2.78132 11.7484ZM1.9505 12.5787C1.97677 12.445 2.0074 12.3114 2.04249 12.178C1.91448 12.4084 1.80015 12.6487 1.70081 12.8979C1.7808 12.7888 1.86408 12.6823 1.9505 12.5787ZM2.74128 10.8872C2.83253 10.7867 2.9268 10.6893 3.0239 10.595C3.06414 10.4644 3.10873 10.3343 3.15776 10.2049C3.00581 10.4213 2.86652 10.649 2.74128 10.8872ZM3.6169 9.62699C3.56516 9.72819 3.51586 9.83139 3.46908 9.93639C3.41022 10.0686 3.35629 10.2018 3.30722 10.3357C3.50719 10.1632 3.71737 10.0033 3.93642 9.85659C3.99394 9.59959 4.06769 9.34439 4.15805 9.09229C3.96775 9.25869 3.78693 9.43719 3.6169 9.62699ZM4.29833 8.73469C4.3518 8.60949 4.40953 8.48529 4.47155 8.36219C4.29853 8.56079 4.13683 8.77189 3.98791 8.99479C4.08878 8.90469 4.19232 8.81799 4.29833 8.73469ZM1.14072 14.2546C1.11975 14.391 1.10324 14.5272 1.09108 14.663C1.01591 14.7752 0.94416 14.8899 0.87597 15.0069C0.94876 14.7484 1.03741 14.4974 1.14072 14.2546ZM18.2185 43.2165C18.3562 43.2087 18.4927 43.1965 18.628 43.1802C18.7532 43.2304 18.8802 43.2767 19.0087 43.3191C18.741 43.3016 18.4772 43.2671 18.2185 43.2165ZM8.80223 4.2412C8.92613 4.18662 9.05163 4.13603 9.17843 4.08946C9.26803 3.98673 9.36153 3.88624 9.45863 3.78819C9.23233 3.92386 9.01303 4.07489 8.80223 4.2412ZM10.1131 3.44675C10.0251 3.51784 9.93853 3.59168 9.85353 3.66826C9.74573 3.76528 9.64213 3.86518 9.54273 3.96773C9.79563 3.89145 10.0529 3.83073 10.3128 3.78581C10.4698 3.57448 10.6409 3.37133 10.8259 3.17782C10.584 3.25264 10.3459 3.3423 10.1131 3.44675ZM11.0995 2.90823C11.1995 2.81536 11.303 2.72513 11.41 2.63771C11.1705 2.74904 10.9364 2.8764 10.7092 3.01987C10.8382 2.97852 10.9684 2.94131 11.0995 2.90823ZM11.1911 3.07683C10.9683 3.28695 10.7637 3.51063 10.5777 3.74563C10.8914 3.70462 11.2083 3.68648 11.5256 3.69163C11.6911 3.42458 11.8768 3.16844 12.0821 2.92574C11.7823 2.95471 11.4845 3.00512 11.1911 3.07683ZM12.3458 2.9058C12.1218 3.15526 11.9198 3.4206 11.7408 3.69871C12.0942 3.7162 12.4472 3.7627 12.7963 3.8388C12.9539 3.52246 13.1376 3.21851 13.3459 2.9305C13.0133 2.89579 12.6789 2.88762 12.3458 2.9058ZM13.5575 2.95623C13.3387 3.24858 13.1464 3.55861 12.9823 3.88225C13.365 3.97766 13.742 4.10907 14.1084 4.27729C14.2466 3.90311 14.4189 3.54241 14.623 3.20008C14.2739 3.08735 13.9173 3.00614 13.5575 2.95623ZM14.8029 3.26121C14.5928 3.60868 14.4165 3.97595 14.2767 4.35756C14.6004 4.5177 14.915 4.7072 15.2171 4.92663L15.4609 5.10376C15.5602 4.64508 15.7089 4.20119 15.9023 3.77929C15.5494 3.56878 15.1811 3.39618 14.8029 3.26121ZM16.0616 3.87759C15.8672 4.30574 15.7202 4.75699 15.6256 5.22342L16.9319 6.17257C16.9628 5.69036 17.0473 5.22037 17.1801 4.76924L16.8925 4.51025C16.629 4.27301 16.3509 4.06218 16.0616 3.87759ZM17.3337 4.90754C17.2086 5.35624 17.1325 5.82353 17.1109 6.30255L18.5001 7.31189V6.88413C18.5001 6.58782 18.52 6.29616 18.5586 6.01043L17.3337 4.90754ZM17.0437 0.634664C17.179 0.635244 17.3142 0.640074 17.4488 0.649094C17.5725 0.591744 17.6987 0.537974 17.8273 0.487944C17.5655 0.519814 17.3038 0.568534 17.0437 0.634664Z" fill="white"/>
</svg>
